<svg xmlns="http://www.w3.org/2000/svg" xmlns:xlink="http://www.w3.org/1999/xlink" width="250" zoomAndPan="magnify" viewBox="0 0 187.5 187.499992" height="250" preserveAspectRatio="xMidYMid meet" version="1.0"><defs><clipPath id="id1"><path d="M 44.191406 38.964844 L 143.191406 38.964844 L 143.191406 137.964844 L 44.191406 137.964844 Z M 44.191406 38.964844 " clip-rule="nonzero"/></clipPath></defs><g clip-path="url(#id1)"><path fill="#03989e" d="M 44.179688 74.183594 C 44.179688 70.050781 45.785156 66.175781 48.710938 63.246094 C 51.636719 60.324219 55.519531 58.714844 59.65625 58.714844 C 61.445312 58.714844 63.191406 59.015625 64.828125 59.59375 C 64.230469 57.898438 63.929688 56.09375 63.949219 54.238281 C 64 50.035156 65.703125 46.121094 68.75 43.21875 C 71.621094 40.476562 75.414062 38.964844 79.421875 38.964844 C 83.429688 38.964844 87.222656 40.476562 90.097656 43.222656 C 93.144531 46.125 94.847656 50.039062 94.894531 54.238281 C 94.945312 58.449219 93.335938 62.394531 90.363281 65.367188 L 90.335938 65.394531 C 89.976562 65.75 89.777344 66.230469 89.777344 66.742188 C 89.777344 67.253906 89.976562 67.730469 90.332031 68.089844 L 114.023438 91.78125 C 114.375 92.132812 114.84375 92.324219 115.339844 92.324219 C 115.835938 92.320312 116.300781 92.128906 116.648438 91.773438 C 116.710938 91.714844 116.769531 91.65625 116.828125 91.59375 C 119.675781 88.808594 123.457031 87.246094 127.476562 87.203125 C 131.5 87.15625 135.316406 88.632812 138.222656 91.355469 C 141.3125 94.253906 143.054688 98.175781 143.121094 102.402344 C 143.1875 106.640625 141.582031 110.609375 138.59375 113.601562 C 134.242188 117.953125 127.921875 119.167969 122.472656 117.242188 C 123.054688 118.882812 123.359375 120.632812 123.359375 122.425781 C 123.359375 126.558594 121.75 130.445312 118.828125 133.371094 C 115.847656 136.347656 111.886719 137.957031 107.675781 137.898438 C 103.464844 137.84375 99.546875 136.125 96.644531 133.0625 C 93.921875 130.191406 92.429688 126.417969 92.429688 122.429688 C 92.429688 122.394531 92.429688 122.359375 92.429688 122.328125 C 92.453125 118.304688 94 114.511719 96.78125 111.648438 L 96.882812 111.542969 C 97.667969 110.75 97.671875 109.464844 96.890625 108.683594 L 73.398438 85.1875 C 72.617188 84.40625 71.332031 84.40625 70.535156 85.195312 L 70.429688 85.300781 C 67.570312 88.078125 63.773438 89.621094 59.75 89.648438 C 55.726562 89.675781 51.914062 88.175781 49.019531 85.433594 C 45.957031 82.53125 44.238281 78.613281 44.179688 74.402344 C 44.179688 74.328125 44.179688 74.253906 44.179688 74.183594 Z M 68.472656 65.355469 C 66.117188 63.003906 62.984375 61.710938 59.652344 61.710938 C 56.320312 61.710938 53.1875 63.007812 50.828125 65.367188 C 48.425781 67.769531 47.125 70.964844 47.175781 74.359375 C 47.21875 77.757812 48.605469 80.917969 51.074219 83.257812 C 53.40625 85.46875 56.480469 86.671875 59.730469 86.652344 C 62.980469 86.632812 66.035156 85.390625 68.34375 83.152344 L 68.425781 83.066406 C 70.390625 81.125 73.570312 81.125 75.515625 83.070312 L 99.007812 106.5625 C 100.953125 108.507812 100.953125 111.6875 99.011719 113.648438 L 98.925781 113.734375 C 96.691406 116.039062 95.445312 119.097656 95.425781 122.34375 C 95.425781 122.375 95.425781 122.398438 95.425781 122.425781 C 95.425781 125.644531 96.628906 128.6875 98.820312 131 C 101.160156 133.472656 104.320312 134.859375 107.714844 134.902344 C 111.113281 134.949219 114.308594 133.652344 116.710938 131.25 C 119.066406 128.890625 120.367188 125.757812 120.367188 122.421875 C 120.367188 119.089844 119.066406 115.953125 116.710938 113.597656 C 116.125 113.011719 116.125 112.0625 116.710938 111.480469 C 117.003906 111.1875 117.386719 111.039062 117.769531 111.039062 C 118.152344 111.039062 118.535156 111.183594 118.828125 111.480469 C 123.695312 116.34375 131.613281 116.34375 136.476562 111.480469 C 138.890625 109.066406 140.183594 105.859375 140.132812 102.449219 C 140.074219 99.039062 138.671875 95.875 136.179688 93.539062 C 133.835938 91.34375 130.757812 90.15625 127.515625 90.191406 C 124.269531 90.230469 121.21875 91.488281 118.925781 93.730469 C 118.875 93.78125 118.828125 93.828125 118.777344 93.875 C 117.863281 94.796875 116.644531 95.308594 115.347656 95.3125 C 114.046875 95.316406 112.824219 94.8125 111.90625 93.894531 L 88.21875 70.203125 C 87.296875 69.277344 86.789062 68.050781 86.789062 66.738281 C 86.789062 66.738281 86.789062 66.738281 86.789062 66.734375 C 86.789062 65.421875 87.300781 64.191406 88.222656 63.269531 L 88.246094 63.246094 C 90.644531 60.851562 91.945312 57.660156 91.902344 54.273438 C 91.863281 50.886719 90.488281 47.730469 88.035156 45.386719 C 85.714844 43.175781 82.660156 41.960938 79.421875 41.960938 C 76.183594 41.960938 73.128906 43.175781 70.8125 45.386719 C 68.355469 47.730469 66.980469 50.886719 66.941406 54.273438 C 66.902344 57.660156 68.199219 60.851562 70.597656 63.246094 C 71.183594 63.832031 71.183594 64.78125 70.597656 65.367188 C 70.011719 65.949219 69.066406 65.949219 68.480469 65.367188 C 68.476562 65.363281 68.472656 65.359375 68.472656 65.355469 Z M 68.472656 65.355469 " fill-opacity="1" fill-rule="nonzero"/></g></svg>