<svg xmlns="http://www.w3.org/2000/svg" xmlns:xlink="http://www.w3.org/1999/xlink" width="250" zoomAndPan="magnify" viewBox="0 0 187.5 187.499992" height="250" preserveAspectRatio="xMidYMid meet" version="1.0"><defs><clipPath id="id1"><path d="M 63.214844 50.253906 L 131 50.253906 L 131 137.253906 L 63.214844 137.253906 Z M 63.214844 50.253906 " clip-rule="nonzero"/></clipPath></defs><g clip-path="url(#id1)"><path fill="#202020" d="M 125.691406 127.144531 C 123.324219 124.355469 122.824219 120.445312 123.191406 116.90625 C 123.632812 112.660156 125.421875 108.695312 126.835938 104.714844 C 127.554688 102.683594 128.207031 100.617188 128.527344 98.492188 C 128.835938 96.402344 128.90625 94.304688 128.742188 92.203125 C 128.414062 87.917969 127.253906 83.71875 125.667969 79.726562 C 125.476562 79.238281 125.273438 78.753906 125.066406 78.273438 C 125.050781 78.234375 125.027344 78.203125 125 78.175781 C 125.238281 77.820312 125.453125 77.445312 125.632812 77.058594 C 126.699219 74.761719 126.640625 72.144531 126.40625 69.675781 C 126.222656 67.375 125.902344 65.09375 125.449219 62.832031 C 124.984375 60.652344 124.277344 58.496094 123.117188 56.585938 C 122.542969 55.632812 121.859375 54.765625 121.0625 53.988281 C 120.265625 53.210938 119.386719 52.542969 118.421875 51.992188 C 117.457031 51.4375 116.4375 51.011719 115.363281 50.71875 C 114.289062 50.425781 113.199219 50.269531 112.085938 50.253906 C 109.855469 50.246094 107.761719 50.78125 105.808594 51.851562 C 104.847656 52.375 103.964844 53.011719 103.160156 53.753906 C 102.773438 54.113281 102.40625 54.5 102.066406 54.910156 C 101.695312 55.347656 101.382812 55.816406 101.046875 56.273438 C 100.765625 56.691406 100.398438 57.019531 99.953125 57.257812 L 99.878906 57.292969 L 99.75 57.339844 C 99.644531 57.375 99.535156 57.40625 99.425781 57.425781 L 99.359375 57.441406 L 99.3125 57.441406 L 99.21875 57.449219 C 99.105469 57.460938 98.996094 57.464844 98.882812 57.460938 C 98.464844 57.453125 98.054688 57.394531 97.652344 57.277344 C 97.183594 57.15625 96.722656 57.007812 96.261719 56.859375 C 95.332031 56.5625 94.375 56.261719 93.394531 56.25 C 92.449219 56.226562 91.613281 56.515625 90.882812 57.117188 C 89.511719 58.25 89.058594 60.234375 89.292969 61.929688 C 89.582031 63.976562 91.054688 65.636719 92.625 66.863281 C 93.503906 67.535156 94.417969 68.15625 95.367188 68.722656 C 96.511719 69.429688 97.65625 70.128906 98.804688 70.832031 L 102.324219 72.984375 C 102.765625 73.253906 103.3125 73.519531 103.59375 73.9375 C 103.878906 74.359375 103.839844 74.910156 103.746094 75.402344 C 103.574219 76.234375 103.320312 77.039062 102.980469 77.820312 L 102.980469 77.835938 L 102.957031 77.890625 L 102.886719 78.050781 C 102.835938 78.164062 102.785156 78.277344 102.730469 78.390625 C 102.632812 78.609375 102.53125 78.828125 102.421875 79.042969 C 102.199219 79.488281 101.96875 79.929688 101.722656 80.363281 C 100.75 82.113281 99.621094 83.761719 98.347656 85.308594 C 97.835938 85.933594 97.285156 86.523438 96.691406 87.074219 C 96.605469 87.167969 96.558594 87.277344 96.5625 87.402344 C 96.5625 87.53125 96.605469 87.636719 96.695312 87.726562 C 96.785156 87.816406 96.894531 87.863281 97.019531 87.863281 C 97.148438 87.867188 97.257812 87.824219 97.347656 87.734375 C 98.675781 86.515625 99.792969 85.058594 100.8125 83.578125 C 101.953125 81.957031 102.925781 80.242188 103.730469 78.429688 C 104.082031 77.652344 104.359375 76.847656 104.566406 76.019531 C 104.65625 75.679688 104.710938 75.332031 104.738281 74.980469 C 107.125 75.140625 109.515625 75.144531 111.90625 74.992188 C 112.589844 74.945312 113.269531 74.890625 113.949219 74.816406 C 114.160156 76.265625 114.71875 77.5625 115.625 78.710938 C 116.949219 80.332031 119.019531 81.347656 121.128906 80.941406 C 122.390625 80.699219 123.5 79.964844 124.363281 79.003906 C 125.964844 82.804688 127.203125 86.824219 127.683594 90.917969 C 127.933594 92.992188 127.960938 95.070312 127.765625 97.152344 C 127.554688 99.28125 127.003906 101.332031 126.328125 103.351562 C 124.976562 107.382812 123.132812 111.308594 122.445312 115.53125 C 121.863281 119.105469 122.054688 123.003906 123.898438 126.195312 C 124.773438 127.714844 126.042969 128.871094 127.289062 130.074219 C 128.363281 131.109375 129.628906 132.308594 129.882812 133.855469 C 129.921875 134.113281 129.929688 134.371094 129.90625 134.628906 C 127.894531 135.171875 125.855469 135.585938 123.792969 135.875 C 122.726562 136.023438 121.652344 136.132812 120.578125 136.207031 C 119.558594 136.277344 118.503906 136.382812 117.484375 136.304688 C 117.101562 136.304688 116.761719 136.1875 116.453125 135.960938 C 116.140625 135.6875 116.042969 135.246094 115.988281 134.84375 C 115.835938 133.777344 115.765625 132.691406 115.65625 131.617188 L 114.964844 124.839844 C 114.523438 120.507812 114.117188 116.167969 113.632812 111.839844 C 113.257812 108.5625 112.769531 105.253906 111.613281 102.15625 C 110.496094 99.152344 108.699219 96.386719 105.980469 94.605469 C 103.003906 92.65625 99.285156 92.238281 95.851562 92.886719 C 92.28125 93.5625 89.097656 95.414062 86.488281 97.902344 C 83.832031 100.4375 81.785156 103.550781 80.113281 106.800781 C 78.238281 110.453125 76.742188 114.257812 75.628906 118.210938 C 74.5 122.214844 73.773438 126.292969 73.445312 130.441406 C 73.382812 131.257812 73.339844 132.074219 73.308594 132.886719 C 72.019531 132.484375 70.816406 131.824219 69.980469 130.730469 C 69.144531 129.640625 68.714844 128.3125 68.566406 126.992188 C 68.382812 125.363281 68.609375 123.730469 68.964844 122.152344 C 69.347656 120.429688 69.84375 118.742188 70.234375 117.023438 C 71.023438 113.53125 71.546875 109.996094 71.796875 106.425781 C 71.921875 104.699219 72 102.964844 71.964844 101.238281 C 71.929688 99.683594 71.765625 98.089844 71.175781 96.636719 C 70.65625 95.265625 69.773438 94.1875 68.527344 93.410156 C 67.414062 92.730469 66.03125 92.402344 64.75 92.730469 C 64.429688 92.816406 64.125 92.9375 63.835938 93.09375 C 63.3125 93.378906 63.777344 94.183594 64.308594 93.898438 C 64.820312 93.621094 65.367188 93.5 65.949219 93.527344 C 66.535156 93.558594 67.09375 93.707031 67.621094 93.964844 C 68.8125 94.558594 69.671875 95.464844 70.199219 96.683594 C 70.820312 98.046875 70.988281 99.578125 71.03125 101.0625 C 71.082031 102.753906 71.003906 104.457031 70.890625 106.148438 C 70.65625 109.660156 70.152344 113.136719 69.382812 116.574219 C 69.003906 118.28125 68.511719 119.960938 68.121094 121.667969 C 67.75 123.28125 67.476562 124.957031 67.605469 126.617188 C 67.71875 128.050781 68.089844 129.492188 68.859375 130.722656 C 69.703125 132.039062 70.855469 132.96875 72.320312 133.515625 C 72.675781 133.652344 73.035156 133.773438 73.40625 133.871094 C 73.464844 133.890625 73.527344 133.894531 73.589844 133.886719 C 73.644531 133.90625 73.699219 133.921875 73.753906 133.925781 C 80.878906 134.640625 88.019531 134.832031 95.175781 134.507812 C 96.046875 134.46875 96.921875 134.421875 97.792969 134.363281 C 98.460938 134.335938 99.125 134.253906 99.777344 134.113281 C 101.082031 133.816406 102.46875 132.972656 102.78125 131.578125 C 102.847656 131.300781 102.859375 131.015625 102.824219 130.730469 C 102.789062 130.449219 102.707031 130.175781 102.574219 129.921875 C 102.445312 129.664062 102.273438 129.441406 102.066406 129.242188 C 101.855469 129.046875 101.621094 128.894531 101.355469 128.78125 C 100.511719 128.410156 99.582031 128.351562 98.714844 128.058594 C 98.367188 127.953125 98.078125 127.769531 97.835938 127.5 C 97.449219 127.019531 97.472656 126.382812 97.59375 125.8125 C 97.925781 124.1875 98.449219 122.609375 98.945312 121.03125 C 99.847656 118.183594 100.636719 115.261719 100.164062 112.261719 C 99.894531 110.511719 99.125 108.671875 97.824219 107.410156 C 98.148438 106.816406 98.4375 106.207031 98.6875 105.578125 C 98.960938 104.902344 99.203125 104.214844 99.441406 103.53125 C 99.636719 102.960938 98.738281 102.71875 98.542969 103.28125 C 98.144531 104.433594 97.710938 105.691406 97.113281 106.832031 C 96.800781 106.609375 96.46875 106.425781 96.117188 106.273438 C 94.097656 105.429688 91.457031 105.902344 89.914062 107.480469 C 89.148438 108.261719 88.394531 109.640625 89.21875 110.632812 C 89.621094 111.113281 90.371094 111.347656 90.964844 111.449219 C 91.664062 111.5625 92.355469 111.546875 93.046875 111.394531 C 94.953125 110.988281 96.324219 109.75 97.335938 108.214844 C 98.410156 109.332031 99.023438 110.960938 99.265625 112.429688 C 99.714844 115.1875 98.957031 117.921875 98.136719 120.535156 C 97.675781 122.011719 97.179688 123.484375 96.835938 125.003906 C 96.664062 125.75 96.484375 126.492188 96.695312 127.238281 C 96.8125 127.6875 97.046875 128.066406 97.394531 128.378906 C 98.0625 128.953125 98.953125 129.105469 99.789062 129.289062 C 100.535156 129.445312 101.363281 129.621094 101.742188 130.292969 C 102.402344 131.460938 101.285156 132.617188 100.253906 133.023438 C 99 133.523438 97.535156 133.480469 96.210938 133.550781 C 89.523438 133.902344 82.839844 133.800781 76.164062 133.242188 C 75.523438 133.191406 74.878906 133.128906 74.238281 133.066406 C 74.53125 124.886719 76.375 117.074219 79.769531 109.628906 C 81.292969 106.304688 83.105469 103.058594 85.507812 100.285156 C 87.835938 97.59375 90.730469 95.359375 94.152344 94.273438 C 97.394531 93.246094 101.070312 93.171875 104.1875 94.660156 C 107.078125 96.039062 109.089844 98.585938 110.347656 101.480469 C 111.640625 104.460938 112.207031 107.722656 112.59375 110.917969 C 113.105469 115.085938 113.46875 119.277344 113.898438 123.457031 C 114.121094 125.675781 114.347656 127.894531 114.574219 130.117188 C 114.691406 131.234375 114.804688 132.351562 114.917969 133.46875 C 115.011719 134.382812 114.976562 135.503906 115.523438 136.289062 C 116.054688 137.042969 116.96875 137.226562 117.835938 137.242188 C 118.878906 137.253906 119.933594 137.179688 120.972656 137.097656 C 123.136719 136.929688 125.28125 136.621094 127.40625 136.175781 C 128.429688 135.960938 129.441406 135.714844 130.449219 135.429688 C 130.621094 135.386719 130.730469 135.277344 130.773438 135.105469 C 131.382812 131.582031 127.65625 129.460938 125.691406 127.144531 Z M 123.550781 78.503906 C 122.914062 79.199219 122.140625 79.683594 121.234375 79.953125 C 120.324219 80.203125 119.433594 80.148438 118.558594 79.789062 C 117.675781 79.417969 116.929688 78.859375 116.328125 78.113281 C 115.691406 77.332031 115.25 76.453125 115.011719 75.472656 C 114.40625 73.121094 114.835938 70.632812 115.425781 68.324219 C 116.027344 65.980469 116.867188 63.726562 117.949219 61.5625 C 118.476562 60.511719 119.058594 59.488281 119.6875 58.492188 C 120.007812 57.988281 119.203125 57.519531 118.882812 58.023438 C 117.539062 60.144531 116.433594 62.386719 115.570312 64.742188 C 115.144531 65.898438 114.78125 67.074219 114.484375 68.269531 C 114.15625 69.511719 113.941406 70.769531 113.832031 72.046875 C 113.785156 72.667969 113.785156 73.285156 113.832031 73.90625 C 111.386719 74.15625 108.9375 74.234375 106.480469 74.148438 C 105.871094 74.128906 105.257812 74.09375 104.644531 74.054688 C 104.5 73.570312 104.230469 73.179688 103.828125 72.875 C 103.324219 72.511719 102.800781 72.171875 102.257812 71.867188 L 100.546875 70.816406 L 97.089844 68.6875 C 95.242188 67.554688 93.289062 66.480469 91.816406 64.871094 C 91.480469 64.511719 91.183594 64.117188 90.925781 63.699219 C 90.789062 63.472656 90.667969 63.242188 90.554688 63 C 90.535156 62.964844 90.519531 62.925781 90.503906 62.886719 C 90.503906 62.875 90.472656 62.808594 90.46875 62.792969 C 90.429688 62.695312 90.398438 62.605469 90.367188 62.496094 C 90.304688 62.296875 90.257812 62.089844 90.222656 61.882812 C 90.222656 61.839844 90.207031 61.796875 90.199219 61.753906 L 90.191406 61.671875 C 90.179688 61.566406 90.171875 61.460938 90.164062 61.355469 C 90.152344 61.144531 90.152344 60.933594 90.164062 60.722656 C 90.164062 60.625 90.179688 60.523438 90.191406 60.429688 C 90.191406 60.410156 90.191406 60.390625 90.191406 60.375 L 90.191406 60.351562 C 90.203125 60.289062 90.210938 60.230469 90.222656 60.164062 C 90.257812 59.964844 90.304688 59.769531 90.367188 59.578125 C 90.394531 59.480469 90.429688 59.378906 90.464844 59.285156 L 90.511719 59.160156 C 90.527344 59.132812 90.535156 59.109375 90.546875 59.082031 C 90.632812 58.898438 90.730469 58.722656 90.835938 58.550781 C 90.886719 58.472656 90.941406 58.398438 90.992188 58.324219 C 91 58.316406 91.003906 58.308594 91.007812 58.300781 L 91.023438 58.285156 L 91.132812 58.15625 C 91.261719 58.011719 91.402344 57.875 91.554688 57.753906 L 91.570312 57.738281 L 91.589844 57.722656 C 91.632812 57.695312 91.671875 57.667969 91.710938 57.640625 C 91.796875 57.582031 91.886719 57.53125 91.980469 57.484375 C 92.019531 57.464844 92.054688 57.445312 92.09375 57.425781 L 92.152344 57.398438 C 92.242188 57.363281 92.335938 57.332031 92.433594 57.300781 C 92.53125 57.273438 92.621094 57.253906 92.714844 57.234375 L 92.8125 57.21875 L 92.882812 57.21875 C 92.921875 57.21875 92.960938 57.21875 93.003906 57.207031 C 93.917969 57.136719 94.746094 57.378906 95.644531 57.660156 C 96.542969 57.941406 97.449219 58.265625 98.398438 58.375 C 99.367188 58.511719 100.234375 58.277344 101.003906 57.667969 C 101.429688 57.277344 101.800781 56.839844 102.105469 56.347656 C 102.402344 55.925781 102.722656 55.523438 103.074219 55.144531 C 104.496094 53.597656 106.199219 52.492188 108.191406 51.820312 C 110.175781 51.140625 112.199219 51.003906 114.257812 51.414062 C 116.351562 51.832031 118.210938 52.734375 119.835938 54.121094 C 121.4375 55.542969 122.628906 57.25 123.40625 59.246094 C 124.230469 61.277344 124.679688 63.4375 125 65.597656 C 125.15625 66.664062 125.277344 67.757812 125.390625 68.84375 C 125.542969 70.082031 125.617188 71.328125 125.617188 72.578125 C 125.617188 73.789062 125.421875 74.96875 125.027344 76.117188 C 124.699219 77.011719 124.207031 77.808594 123.550781 78.503906 Z M 94.375 109.902344 C 93.339844 110.488281 92.0625 110.785156 90.890625 110.484375 C 90.4375 110.371094 89.695312 110.144531 89.777344 109.542969 C 89.863281 109.125 90.039062 108.753906 90.308594 108.425781 C 91.496094 106.878906 93.867188 106.421875 95.636719 107.074219 C 96 107.210938 96.339844 107.390625 96.652344 107.621094 C 96.082031 108.574219 95.324219 109.332031 94.375 109.902344 Z M 94.375 109.902344 " fill-opacity="1" fill-rule="nonzero"/></g></svg>