<svg xmlns="http://www.w3.org/2000/svg" xmlns:xlink="http://www.w3.org/1999/xlink" width="250" zoomAndPan="magnify" viewBox="0 0 187.5 187.499992" height="250" preserveAspectRatio="xMidYMid meet" version="1.0"><defs><clipPath id="id1"><path d="M 52.015625 35.839844 L 84.953125 35.839844 L 84.953125 60.695312 L 52.015625 60.695312 Z M 52.015625 35.839844 " clip-rule="nonzero"/></clipPath><clipPath id="id2"><path d="M 101.296875 35.839844 L 134.234375 35.839844 L 134.234375 60.695312 L 101.296875 60.695312 Z M 101.296875 35.839844 " clip-rule="nonzero"/></clipPath><clipPath id="id3"><path d="M 148.503906 35.839844 L 181.441406 35.839844 L 181.441406 60.695312 L 148.503906 60.695312 Z M 148.503906 35.839844 " clip-rule="nonzero"/></clipPath><clipPath id="id4"><path d="M 6 35.839844 L 38.933594 35.839844 L 38.933594 60.695312 L 6 60.695312 Z M 6 35.839844 " clip-rule="nonzero"/></clipPath></defs><g clip-path="url(#id1)"><path fill="#000000" d="M 76.308594 35.933594 C 75.957031 35.933594 75.617188 36.164062 75.554688 36.628906 L 74.644531 42.015625 C 74.46875 43.0625 73.351562 44.449219 70.859375 44.640625 C 65.945312 45.015625 66.480469 44.410156 63.199219 44.367188 C 61.394531 43.800781 59.941406 42.628906 58.734375 40.769531 C 58.46875 40.339844 57.929688 40.167969 57.460938 40.355469 C 56.847656 40.601562 56.621094 41.335938 56.980469 41.878906 C 57.847656 43.214844 58.902344 44.300781 60.105469 45.113281 C 58.359375 46.113281 58.605469 47.800781 57.992188 49.050781 C 57.191406 50.261719 56.210938 51.207031 54.035156 51.859375 C 53.828125 51.90625 53.648438 52.027344 53.535156 52.199219 L 52.035156 54.605469 L 53.929688 56.484375 C 54.371094 56.042969 54.449219 55.359375 54.109375 54.835938 L 54.964844 53.558594 L 58.722656 53.742188 L 57.21875 54.90625 C 57.054688 55.027344 56.945312 55.207031 56.910156 55.410156 L 56.441406 58.074219 L 58.761719 59.402344 C 59.128906 58.765625 58.910156 57.957031 58.273438 57.589844 L 58.761719 55.875 C 60.613281 55.675781 61.59375 55.28125 63.835938 53.058594 C 67.027344 49.902344 67.558594 54.328125 74.308594 53.382812 L 76.804688 56.039062 L 78.039062 58.8125 C 78.132812 59.023438 78.316406 59.183594 78.539062 59.25 L 80.863281 60.578125 C 81.230469 59.941406 81.011719 59.132812 80.371094 58.765625 C 80.246094 58.699219 80.113281 58.648438 79.976562 58.617188 L 78.699219 53.800781 L 80.652344 53.929688 L 82.285156 55.695312 L 84.605469 57.023438 C 84.976562 56.386719 84.757812 55.578125 84.113281 55.210938 C 83.984375 55.136719 83.84375 55.085938 83.695312 55.058594 L 81.96875 52.234375 C 81.886719 52.128906 81.773438 52.050781 81.648438 52 L 79.84375 51.28125 C 78.285156 50.664062 77.925781 48.113281 78.136719 46.75 C 78.285156 45.777344 78.75 45.175781 79.894531 45.164062 L 82.535156 45.140625 C 83.902344 44.972656 84.402344 43.828125 84.640625 43.175781 C 84.921875 42.410156 84.640625 41.910156 84.0625 41.753906 C 82.472656 41.335938 82.074219 41.148438 81.410156 40.109375 C 80.824219 39.195312 80.296875 38.75 79.472656 38.628906 L 79.148438 37.421875 C 78.933594 36.648438 77.898438 36.640625 77.796875 37.421875 L 77.65625 38.460938 L 77.164062 36.628906 C 77.035156 36.167969 76.664062 35.933594 76.308594 35.933594 Z M 76.308594 35.933594 " fill-opacity="1" fill-rule="nonzero"/></g><g clip-path="url(#id2)"><path fill="#000000" d="M 125.589844 35.933594 C 125.238281 35.933594 124.898438 36.164062 124.835938 36.628906 L 123.925781 42.015625 C 123.75 43.0625 122.632812 44.449219 120.140625 44.640625 C 115.230469 45.015625 115.761719 44.410156 112.480469 44.367188 C 110.675781 43.800781 109.222656 42.628906 108.015625 40.769531 C 107.75 40.339844 107.210938 40.167969 106.742188 40.355469 C 106.132812 40.601562 105.902344 41.335938 106.265625 41.878906 C 107.128906 43.214844 108.183594 44.300781 109.386719 45.113281 C 107.644531 46.113281 107.886719 47.800781 107.273438 49.050781 C 106.472656 50.261719 105.492188 51.207031 103.316406 51.859375 C 103.109375 51.90625 102.933594 52.027344 102.816406 52.199219 L 101.316406 54.605469 L 103.210938 56.484375 C 103.65625 56.042969 103.730469 55.359375 103.394531 54.835938 L 104.25 53.558594 L 108.003906 53.742188 L 106.503906 54.90625 C 106.335938 55.027344 106.226562 55.207031 106.191406 55.410156 L 105.722656 58.074219 L 108.042969 59.402344 C 108.414062 58.765625 108.195312 57.957031 107.554688 57.589844 L 108.046875 55.875 C 109.894531 55.675781 110.875 55.28125 113.117188 53.058594 C 116.308594 49.902344 116.839844 54.328125 123.589844 53.382812 L 126.085938 56.039062 L 127.320312 58.8125 C 127.417969 59.023438 127.597656 59.183594 127.820312 59.25 L 130.144531 60.578125 C 130.511719 59.941406 130.292969 59.132812 129.652344 58.765625 C 129.527344 58.699219 129.394531 58.648438 129.257812 58.617188 L 127.984375 53.800781 L 129.9375 53.929688 L 131.566406 55.695312 L 133.886719 57.023438 C 134.257812 56.386719 134.039062 55.578125 133.398438 55.210938 C 133.269531 55.136719 133.125 55.085938 132.976562 55.058594 L 131.253906 52.234375 C 131.167969 52.128906 131.058594 52.050781 130.929688 52 L 129.125 51.28125 C 127.570312 50.664062 127.207031 48.113281 127.417969 46.75 C 127.566406 45.777344 128.035156 45.175781 129.175781 45.164062 L 131.816406 45.140625 C 133.183594 44.972656 133.6875 43.828125 133.921875 43.175781 C 134.203125 42.410156 133.921875 41.910156 133.34375 41.753906 C 131.757812 41.335938 131.355469 41.148438 130.691406 40.109375 C 130.105469 39.195312 129.578125 38.75 128.753906 38.628906 L 128.429688 37.421875 C 128.214844 36.648438 127.179688 36.640625 127.078125 37.421875 L 126.9375 38.460938 L 126.445312 36.628906 C 126.320312 36.167969 125.945312 35.933594 125.589844 35.933594 Z M 125.589844 35.933594 " fill-opacity="1" fill-rule="nonzero"/></g><g clip-path="url(#id3)"><path fill="#000000" d="M 172.796875 35.933594 C 172.445312 35.933594 172.105469 36.164062 172.042969 36.628906 L 171.132812 42.015625 C 170.957031 43.0625 169.839844 44.449219 167.347656 44.640625 C 162.433594 45.015625 162.96875 44.410156 159.6875 44.367188 C 157.882812 43.800781 156.429688 42.628906 155.222656 40.769531 C 154.957031 40.339844 154.417969 40.167969 153.949219 40.355469 C 153.335938 40.601562 153.109375 41.335938 153.46875 41.878906 C 154.335938 43.214844 155.390625 44.300781 156.59375 45.113281 C 154.847656 46.113281 155.09375 47.800781 154.480469 49.050781 C 153.679688 50.261719 152.699219 51.207031 150.523438 51.859375 C 150.316406 51.90625 150.136719 52.027344 150.023438 52.199219 L 148.519531 54.605469 L 150.417969 56.484375 C 150.859375 56.042969 150.9375 55.359375 150.597656 54.835938 L 151.453125 53.558594 L 155.210938 53.742188 L 153.707031 54.90625 C 153.542969 55.027344 153.429688 55.207031 153.398438 55.410156 L 152.929688 58.074219 L 155.25 59.402344 C 155.617188 58.765625 155.398438 57.957031 154.761719 57.589844 L 155.25 55.875 C 157.101562 55.675781 158.082031 55.28125 160.324219 53.058594 C 163.515625 49.902344 164.046875 54.328125 170.792969 53.382812 L 173.289062 56.039062 L 174.527344 58.8125 C 174.621094 59.023438 174.804688 59.183594 175.027344 59.25 L 177.351562 60.578125 C 177.71875 59.941406 177.5 59.132812 176.859375 58.765625 C 176.734375 58.699219 176.601562 58.648438 176.460938 58.617188 L 175.1875 53.800781 L 177.140625 53.929688 L 178.773438 55.695312 L 181.09375 57.023438 C 181.464844 56.386719 181.242188 55.578125 180.601562 55.210938 C 180.472656 55.136719 180.332031 55.085938 180.183594 55.058594 L 178.457031 52.234375 C 178.371094 52.128906 178.261719 52.050781 178.136719 52 L 176.332031 51.28125 C 174.773438 50.664062 174.414062 48.113281 174.625 46.75 C 174.773438 45.777344 175.238281 45.175781 176.382812 45.164062 L 179.023438 45.140625 C 180.390625 44.972656 180.890625 43.828125 181.128906 43.175781 C 181.410156 42.410156 181.128906 41.910156 180.550781 41.753906 C 178.960938 41.335938 178.5625 41.148438 177.898438 40.109375 C 177.3125 39.195312 176.785156 38.75 175.960938 38.628906 L 175.632812 37.421875 C 175.421875 36.648438 174.386719 36.640625 174.285156 37.421875 L 174.144531 38.460938 L 173.652344 36.628906 C 173.523438 36.167969 173.152344 35.933594 172.796875 35.933594 Z M 172.796875 35.933594 " fill-opacity="1" fill-rule="nonzero"/></g><g clip-path="url(#id4)"><path fill="#000000" d="M 30.292969 35.933594 C 29.9375 35.933594 29.597656 36.164062 29.535156 36.628906 L 28.628906 42.015625 C 28.449219 43.0625 27.335938 44.449219 24.839844 44.640625 C 19.929688 45.015625 20.460938 44.410156 17.183594 44.367188 C 15.375 43.800781 13.921875 42.628906 12.714844 40.769531 C 12.449219 40.339844 11.910156 40.167969 11.441406 40.355469 C 10.832031 40.601562 10.601562 41.335938 10.964844 41.878906 C 11.828125 43.214844 12.882812 44.300781 14.089844 45.113281 C 12.34375 46.113281 12.585938 47.800781 11.972656 49.050781 C 11.171875 50.261719 10.191406 51.207031 8.015625 51.859375 C 7.808594 51.90625 7.632812 52.027344 7.515625 52.199219 L 6.015625 54.605469 L 7.910156 56.484375 C 8.355469 56.042969 8.429688 55.359375 8.09375 54.835938 L 8.949219 53.558594 L 12.703125 53.742188 L 11.203125 54.90625 C 11.035156 55.027344 10.925781 55.207031 10.890625 55.410156 L 10.421875 58.074219 L 12.742188 59.402344 C 13.113281 58.765625 12.894531 57.957031 12.253906 57.589844 L 12.746094 55.875 C 14.59375 55.675781 15.574219 55.28125 17.816406 53.058594 C 21.007812 49.902344 21.539062 54.328125 28.289062 53.382812 L 30.785156 56.039062 L 32.023438 58.8125 C 32.117188 59.023438 32.296875 59.183594 32.519531 59.25 L 34.84375 60.578125 C 35.210938 59.941406 34.992188 59.132812 34.351562 58.765625 C 34.226562 58.699219 34.09375 58.648438 33.957031 58.617188 L 32.683594 53.800781 L 34.636719 53.929688 L 36.265625 55.695312 L 38.585938 57.023438 C 38.957031 56.386719 38.738281 55.578125 38.097656 55.210938 C 37.96875 55.136719 37.824219 55.085938 37.675781 55.058594 L 35.953125 52.234375 C 35.867188 52.128906 35.757812 52.050781 35.628906 52 L 33.824219 51.28125 C 32.269531 50.664062 31.90625 48.113281 32.117188 46.75 C 32.265625 45.777344 32.734375 45.175781 33.875 45.164062 L 36.519531 45.140625 C 37.882812 44.972656 38.386719 43.828125 38.625 43.175781 C 38.90625 42.410156 38.621094 41.910156 38.042969 41.753906 C 36.457031 41.335938 36.054688 41.148438 35.390625 40.109375 C 34.808594 39.195312 34.28125 38.75 33.453125 38.628906 L 33.128906 37.421875 C 32.914062 36.648438 31.878906 36.640625 31.777344 37.421875 L 31.636719 38.460938 L 31.144531 36.628906 C 31.019531 36.167969 30.648438 35.933594 30.292969 35.933594 Z M 30.292969 35.933594 " fill-opacity="1" fill-rule="nonzero"/></g></svg>