<svg id="Layer_1" data-name="Layer 1" xmlns="http://www.w3.org/2000/svg" xmlns:xlink="http://www.w3.org/1999/xlink" viewBox="0 0 233.68 32.86"><defs><style>.cls-1{fill:none;}.cls-2{clip-path:url(#clip-path);}.cls-3{clip-path:url(#clip-path-2);}.cls-4{clip-path:url(#clip-path-3);}.cls-5{clip-path:url(#clip-path-4);}</style><clipPath id="clip-path" transform="translate(-8.02 -47.91)"><rect class="cls-1" x="69.35" y="47.79" width="43.92" height="33.14"/></clipPath><clipPath id="clip-path-2" transform="translate(-8.02 -47.91)"><rect class="cls-1" x="135.06" y="47.79" width="43.92" height="33.14"/></clipPath><clipPath id="clip-path-3" transform="translate(-8.02 -47.91)"><rect class="cls-1" x="198.01" y="47.79" width="43.92" height="33.14"/></clipPath><clipPath id="clip-path-4" transform="translate(-8.02 -47.91)"><rect class="cls-1" x="8" y="47.79" width="43.91" height="33.14"/></clipPath></defs><g class="cls-2"><path d="M101.74,47.91a1,1,0,0,0-1,.93L99.53,56c-.24,1.4-1.73,3.25-5,3.5-6.55.5-5.84-.31-10.21-.36a10.93,10.93,0,0,1-6-4.8,1.39,1.39,0,0,0-1.7-.55,1.37,1.37,0,0,0-.64,2,15.07,15.07,0,0,0,4.17,4.31c-2.33,1.33-2,3.58-2.82,5.25a8.51,8.51,0,0,1-5.27,3.75,1.06,1.06,0,0,0-.67.45l-2,3.21,2.53,2.5a1.77,1.77,0,0,0,.24-2.2l1.14-1.7,5,.25-2,1.55a1.05,1.05,0,0,0-.41.67l-.62,3.55,3.09,1.77a1.76,1.76,0,0,0-.65-2.41l.65-2.29c2.47-.27,3.78-.79,6.76-3.76,4.26-4.2,5,1.7,14,.44l3.33,3.54,1.64,3.7a1.07,1.07,0,0,0,.67.58l3.1,1.77a1.76,1.76,0,0,0-.66-2.42,2.5,2.5,0,0,0-.52-.19l-1.71-6.43,2.61.18,2.17,2.35,3.1,1.77a1.76,1.76,0,0,0-.66-2.42,2.07,2.07,0,0,0-.56-.2l-2.3-3.76a1.06,1.06,0,0,0-.43-.32l-2.4-1c-2.08-.83-2.56-4.23-2.28-6a2.15,2.15,0,0,1,2.35-2.11l3.52,0a3.5,3.5,0,0,0,2.8-2.62c.38-1,0-1.69-.77-1.9-2.12-.56-2.65-.81-3.53-2.19a3.57,3.57,0,0,0-2.59-2l-.43-1.61a.91.91,0,0,0-1.8,0l-.19,1.38-.65-2.44A1.21,1.21,0,0,0,101.74,47.91Z" transform="translate(-8.02 -47.91)"/></g><g class="cls-3"><path d="M167.45,47.91a1,1,0,0,0-1,.93L165.23,56c-.23,1.4-1.72,3.25-5,3.5-6.55.5-5.84-.31-10.22-.36a10.94,10.94,0,0,1-5.95-4.8,1.39,1.39,0,0,0-1.7-.55,1.36,1.36,0,0,0-.63,2,14.78,14.78,0,0,0,4.16,4.31c-2.32,1.33-2,3.58-2.82,5.25a8.54,8.54,0,0,1-5.27,3.75,1.06,1.06,0,0,0-.67.45l-2,3.21,2.52,2.5a1.75,1.75,0,0,0,.25-2.2l1.14-1.7,5,.25-2,1.55a1,1,0,0,0-.42.67L141,77.43l3.1,1.77a1.76,1.76,0,0,0-.65-2.41l.65-2.29c2.47-.27,3.77-.79,6.76-3.76,4.26-4.2,5,1.7,14,.44l3.32,3.54,1.65,3.7a1.07,1.07,0,0,0,.67.58l3.1,1.77a1.77,1.77,0,0,0-.66-2.42,2.39,2.39,0,0,0-.53-.19l-1.69-6.43,2.6.18,2.17,2.35,3.1,1.77a1.76,1.76,0,0,0-.66-2.42,2.07,2.07,0,0,0-.56-.2L175,69.65a1.16,1.16,0,0,0-.44-.32l-2.4-1c-2.08-.83-2.56-4.23-2.28-6a2.15,2.15,0,0,1,2.34-2.11l3.53,0a3.5,3.5,0,0,0,2.8-2.62c.38-1,0-1.69-.77-1.9-2.11-.56-2.65-.81-3.53-2.19a3.59,3.59,0,0,0-2.59-2l-.43-1.61a.91.91,0,0,0-1.8,0l-.19,1.38-.66-2.44A1.18,1.18,0,0,0,167.45,47.91Z" transform="translate(-8.02 -47.91)"/></g><g class="cls-4"><path d="M230.4,47.91a1,1,0,0,0-1,.93L228.18,56c-.24,1.4-1.73,3.25-5.05,3.5-6.55.5-5.84-.31-10.21-.36a10.93,10.93,0,0,1-6-4.8,1.38,1.38,0,0,0-1.69-.55,1.37,1.37,0,0,0-.64,2,14.91,14.91,0,0,0,4.16,4.31c-2.33,1.33-2,3.58-2.82,5.25a8.51,8.51,0,0,1-5.27,3.75,1.06,1.06,0,0,0-.67.45l-2,3.21,2.53,2.5a1.76,1.76,0,0,0,.24-2.2l1.14-1.7,5,.25-2,1.55a1,1,0,0,0-.41.67l-.62,3.55L207,79.2a1.76,1.76,0,0,0-.65-2.41L207,74.5c2.47-.27,3.78-.79,6.77-3.76,4.25-4.2,5,1.7,13.95.44l3.33,3.54,1.65,3.7a1.07,1.07,0,0,0,.67.58l3.1,1.77a1.76,1.76,0,0,0-.66-2.42,2.22,2.22,0,0,0-.53-.19l-1.7-6.43,2.61.18,2.17,2.35,3.1,1.77a1.76,1.76,0,0,0-.66-2.42,2.07,2.07,0,0,0-.56-.2l-2.3-3.76a1.1,1.1,0,0,0-.42-.32l-2.41-1c-2.08-.83-2.56-4.23-2.28-6a2.15,2.15,0,0,1,2.35-2.11l3.52,0a3.53,3.53,0,0,0,2.81-2.62c.37-1,0-1.69-.78-1.9-2.12-.56-2.65-.81-3.53-2.19a3.57,3.57,0,0,0-2.59-2l-.43-1.61a.91.91,0,0,0-1.8,0l-.19,1.38-.65-2.44A1.21,1.21,0,0,0,230.4,47.91Z" transform="translate(-8.02 -47.91)"/></g><g class="cls-5"><path d="M40.39,47.91a1,1,0,0,0-1,.93L38.17,56c-.24,1.4-1.72,3.25-5.05,3.5-6.55.5-5.84-.31-10.21-.36a10.93,10.93,0,0,1-6-4.8,1.38,1.38,0,0,0-1.69-.55,1.37,1.37,0,0,0-.64,2,14.81,14.81,0,0,0,4.17,4.31c-2.33,1.33-2,3.58-2.83,5.25a8.51,8.51,0,0,1-5.27,3.75,1.08,1.08,0,0,0-.67.45L8,72.81l2.53,2.5a1.76,1.76,0,0,0,.24-2.2l1.14-1.7,5,.25-2,1.55a1,1,0,0,0-.42.67l-.62,3.55L17,79.2a1.76,1.76,0,0,0-.65-2.41L17,74.5c2.47-.27,3.78-.79,6.77-3.76,4.25-4.2,5,1.7,14,.44l3.33,3.54,1.65,3.7a1,1,0,0,0,.66.58l3.1,1.77a1.76,1.76,0,0,0-.66-2.42,2.31,2.31,0,0,0-.52-.19l-1.7-6.43,2.6.18,2.17,2.35L51.45,76a1.77,1.77,0,0,0-.65-2.42,2.14,2.14,0,0,0-.57-.2l-2.29-3.76a1.13,1.13,0,0,0-.43-.32l-2.41-1c-2.07-.83-2.56-4.23-2.28-6a2.16,2.16,0,0,1,2.35-2.11l3.52,0a3.53,3.53,0,0,0,2.81-2.62c.38-1,0-1.69-.78-1.9-2.11-.56-2.65-.81-3.53-2.19a3.56,3.56,0,0,0-2.59-2l-.43-1.61a.91.91,0,0,0-1.8,0l-.19,1.38-.65-2.44A1.2,1.2,0,0,0,40.39,47.91Z" transform="translate(-8.02 -47.91)"/></g></svg>