<svg xmlns="http://www.w3.org/2000/svg" xmlns:xlink="http://www.w3.org/1999/xlink" width="250" zoomAndPan="magnify" viewBox="0 0 187.5 187.499992" height="250" preserveAspectRatio="xMidYMid meet" version="1.0"><defs><clipPath id="id1"><path d="M 77 59 L 91.738281 59 L 91.738281 85.429688 L 77 85.429688 Z M 77 59 " clip-rule="nonzero"/></clipPath><clipPath id="id2"><path d="M 58 59 L 73 59 L 73 85.429688 L 58 85.429688 Z M 58 59 " clip-rule="nonzero"/></clipPath><clipPath id="id3"><path d="M 67 57.738281 L 82 57.738281 L 82 71 L 67 71 Z M 67 57.738281 " clip-rule="nonzero"/></clipPath><clipPath id="id4"><path d="M 120 59 L 135 59 L 135 85.429688 L 120 85.429688 Z M 120 59 " clip-rule="nonzero"/></clipPath><clipPath id="id5"><path d="M 101.171875 59 L 116 59 L 116 85.429688 L 101.171875 85.429688 Z M 101.171875 59 " clip-rule="nonzero"/></clipPath><clipPath id="id6"><path d="M 110 57.738281 L 126 57.738281 L 126 71 L 110 71 Z M 110 57.738281 " clip-rule="nonzero"/></clipPath><clipPath id="id7"><path d="M 161 59 L 175.621094 59 L 175.621094 85.378906 L 161 85.378906 Z M 161 59 " clip-rule="nonzero"/></clipPath><clipPath id="id8"><path d="M 142 59 L 157 59 L 157 85.378906 L 142 85.378906 Z M 142 59 " clip-rule="nonzero"/></clipPath><clipPath id="id9"><path d="M 150 57.691406 L 166 57.691406 L 166 71 L 150 71 Z M 150 57.691406 " clip-rule="nonzero"/></clipPath><clipPath id="id10"><path d="M 31 59 L 45.816406 59 L 45.816406 85.378906 L 31 85.378906 Z M 31 59 " clip-rule="nonzero"/></clipPath><clipPath id="id11"><path d="M 12 59 L 27 59 L 27 85.378906 L 12 85.378906 Z M 12 59 " clip-rule="nonzero"/></clipPath><clipPath id="id12"><path d="M 21 57.691406 L 36 57.691406 L 36 71 L 21 71 Z M 21 57.691406 " clip-rule="nonzero"/></clipPath></defs><g clip-path="url(#id1)"><path fill="#f57c67" d="M 89.453125 59.691406 C 88.441406 59.8125 87.964844 60.613281 87.984375 61.652344 C 88.042969 64.441406 87.664062 67.621094 86.140625 69.917969 C 85.542969 70.816406 84.824219 71.414062 83.957031 72.128906 L 85.136719 69.863281 C 85.507812 69.152344 85.230469 68.273438 84.519531 67.902344 C 83.8125 67.53125 82.933594 67.808594 82.566406 68.519531 L 79.003906 75.371094 C 75.6875 79.96875 77.757812 85.40625 77.757812 85.40625 L 82.871094 85.429688 C 82.898438 82.804688 84.507812 80.566406 84.507812 80.566406 C 91.710938 72.078125 91.179688 63.84375 91.136719 61.738281 C 91.109375 60.503906 90.464844 59.574219 89.453125 59.691406 " fill-opacity="1" fill-rule="nonzero"/></g><g clip-path="url(#id2)"><path fill="#f57c67" d="M 60.121094 59.691406 C 61.136719 59.8125 61.613281 60.613281 61.59375 61.652344 C 61.53125 64.441406 61.910156 67.621094 63.4375 69.917969 C 64.035156 70.816406 64.753906 71.414062 65.617188 72.128906 L 64.441406 69.863281 C 64.070312 69.152344 64.34375 68.273438 65.054688 67.902344 C 65.765625 67.53125 66.640625 67.808594 67.011719 68.519531 L 70.574219 75.371094 C 73.886719 79.96875 71.820312 85.40625 71.820312 85.40625 L 66.703125 85.429688 C 66.679688 82.804688 65.066406 80.566406 65.066406 80.566406 C 57.863281 72.078125 58.394531 63.84375 58.441406 61.738281 C 58.464844 60.503906 59.113281 59.574219 60.121094 59.691406 " fill-opacity="1" fill-rule="nonzero"/></g><g clip-path="url(#id3)"><path fill="#ee3224" d="M 81.765625 61.808594 C 81.765625 59.558594 79.949219 57.738281 77.707031 57.738281 C 76.367188 57.738281 75.175781 58.390625 74.4375 59.398438 C 73.699219 58.390625 72.507812 57.738281 71.164062 57.738281 C 68.921875 57.738281 67.105469 59.558594 67.105469 61.808594 C 67.105469 62.894531 67.53125 63.882812 68.226562 64.609375 L 74.246094 70.738281 L 80.914062 64.300781 C 81.445312 63.609375 81.765625 62.746094 81.765625 61.808594 " fill-opacity="1" fill-rule="nonzero"/></g><g clip-path="url(#id4)"><path fill="#f57c67" d="M 132.789062 59.691406 C 131.777344 59.8125 131.300781 60.613281 131.320312 61.652344 C 131.378906 64.441406 131 67.621094 129.472656 69.917969 C 128.878906 70.816406 128.160156 71.414062 127.292969 72.128906 L 128.46875 69.863281 C 128.839844 69.152344 128.566406 68.273438 127.855469 67.902344 C 127.144531 67.53125 126.269531 67.808594 125.898438 68.519531 L 122.335938 75.371094 C 119.023438 79.96875 121.089844 85.40625 121.089844 85.40625 L 126.207031 85.429688 C 126.234375 82.804688 127.84375 80.566406 127.84375 80.566406 C 135.046875 72.078125 134.515625 63.84375 134.46875 61.738281 C 134.445312 60.503906 133.796875 59.574219 132.789062 59.691406 " fill-opacity="1" fill-rule="nonzero"/></g><g clip-path="url(#id5)"><path fill="#f57c67" d="M 103.457031 59.691406 C 104.472656 59.8125 104.945312 60.613281 104.925781 61.652344 C 104.867188 64.441406 105.246094 67.621094 106.769531 69.917969 C 107.367188 70.816406 108.085938 71.414062 108.953125 72.128906 L 107.773438 69.863281 C 107.40625 69.152344 107.679688 68.273438 108.390625 67.902344 C 109.101562 67.53125 109.976562 67.808594 110.347656 68.519531 L 113.910156 75.371094 C 117.222656 79.96875 115.15625 85.40625 115.15625 85.40625 L 110.039062 85.429688 C 110.011719 82.804688 108.402344 80.566406 108.402344 80.566406 C 101.199219 72.078125 101.730469 63.84375 101.773438 61.738281 C 101.800781 60.503906 102.449219 59.574219 103.457031 59.691406 " fill-opacity="1" fill-rule="nonzero"/></g><g clip-path="url(#id6)"><path fill="#ee3224" d="M 125.101562 61.808594 C 125.101562 59.558594 123.285156 57.738281 121.042969 57.738281 C 119.699219 57.738281 118.511719 58.390625 117.773438 59.398438 C 117.03125 58.390625 115.84375 57.738281 114.5 57.738281 C 112.257812 57.738281 110.441406 59.558594 110.441406 61.808594 C 110.441406 62.894531 110.867188 63.882812 111.558594 64.609375 L 117.582031 70.738281 L 124.25 64.300781 C 124.78125 63.609375 125.101562 62.746094 125.101562 61.808594 " fill-opacity="1" fill-rule="nonzero"/></g><g clip-path="url(#id7)"><path fill="#f57c67" d="M 173.332031 59.644531 C 172.320312 59.765625 171.84375 60.566406 171.863281 61.605469 C 171.925781 64.394531 171.542969 67.574219 170.019531 69.871094 C 169.421875 70.769531 168.703125 71.363281 167.839844 72.082031 L 169.015625 69.816406 C 169.386719 69.105469 169.109375 68.226562 168.398438 67.855469 C 167.691406 67.484375 166.816406 67.761719 166.445312 68.472656 L 162.882812 75.324219 C 159.566406 79.921875 161.636719 85.359375 161.636719 85.359375 L 166.75 85.382812 C 166.777344 82.757812 168.386719 80.519531 168.386719 80.519531 C 175.589844 72.03125 175.0625 63.796875 175.015625 61.691406 C 174.988281 60.457031 174.34375 59.527344 173.332031 59.644531 " fill-opacity="1" fill-rule="nonzero"/></g><g clip-path="url(#id8)"><path fill="#f57c67" d="M 144.003906 59.644531 C 145.015625 59.765625 145.492188 60.566406 145.472656 61.605469 C 145.410156 64.394531 145.789062 67.574219 147.316406 69.871094 C 147.914062 70.769531 148.632812 71.363281 149.496094 72.082031 L 148.320312 69.816406 C 147.949219 69.105469 148.222656 68.226562 148.933594 67.855469 C 149.644531 67.484375 150.519531 67.761719 150.890625 68.472656 L 154.453125 75.324219 C 157.765625 79.921875 155.699219 85.359375 155.699219 85.359375 L 150.582031 85.382812 C 150.558594 82.757812 148.945312 80.519531 148.945312 80.519531 C 141.742188 72.03125 142.273438 63.796875 142.320312 61.691406 C 142.34375 60.457031 142.992188 59.527344 144.003906 59.644531 " fill-opacity="1" fill-rule="nonzero"/></g><g clip-path="url(#id9)"><path fill="#ee3224" d="M 165.644531 61.761719 C 165.644531 59.511719 163.828125 57.691406 161.589844 57.691406 C 160.246094 57.691406 159.054688 58.34375 158.316406 59.351562 C 157.578125 58.34375 156.386719 57.691406 155.042969 57.691406 C 152.804688 57.691406 150.988281 59.511719 150.988281 61.761719 C 150.988281 62.847656 151.414062 63.832031 152.105469 64.5625 L 158.128906 70.691406 L 164.792969 64.253906 C 165.328125 63.5625 165.644531 62.699219 165.644531 61.761719 " fill-opacity="1" fill-rule="nonzero"/></g><g clip-path="url(#id10)"><path fill="#f57c67" d="M 43.53125 59.644531 C 42.515625 59.765625 42.039062 60.566406 42.058594 61.605469 C 42.121094 64.394531 41.742188 67.574219 40.214844 69.871094 C 39.617188 70.769531 38.898438 71.363281 38.035156 72.082031 L 39.210938 69.816406 C 39.582031 69.105469 39.308594 68.226562 38.597656 67.855469 C 37.886719 67.484375 37.011719 67.761719 36.640625 68.472656 L 33.078125 75.324219 C 29.765625 79.921875 31.832031 85.359375 31.832031 85.359375 L 36.949219 85.382812 C 36.972656 82.757812 38.585938 80.519531 38.585938 80.519531 C 45.789062 72.03125 45.257812 63.796875 45.210938 61.691406 C 45.1875 60.457031 44.539062 59.527344 43.53125 59.644531 " fill-opacity="1" fill-rule="nonzero"/></g><g clip-path="url(#id11)"><path fill="#f57c67" d="M 14.199219 59.644531 C 15.214844 59.765625 15.6875 60.566406 15.667969 61.605469 C 15.609375 64.394531 15.988281 67.574219 17.511719 69.871094 C 18.109375 70.769531 18.828125 71.363281 19.695312 72.082031 L 18.515625 69.816406 C 18.144531 69.105469 18.421875 68.226562 19.132812 67.855469 C 19.839844 67.484375 20.71875 67.761719 21.085938 68.472656 L 24.652344 75.324219 C 27.964844 79.921875 25.898438 85.359375 25.898438 85.359375 L 20.78125 85.382812 C 20.753906 82.757812 19.144531 80.519531 19.144531 80.519531 C 11.941406 72.03125 12.472656 63.796875 12.515625 61.691406 C 12.542969 60.457031 13.191406 59.527344 14.199219 59.644531 " fill-opacity="1" fill-rule="nonzero"/></g><g clip-path="url(#id12)"><path fill="#ee3224" d="M 35.84375 61.761719 C 35.84375 59.511719 34.027344 57.691406 31.785156 57.691406 C 30.441406 57.691406 29.25 58.34375 28.511719 59.351562 C 27.773438 58.34375 26.582031 57.691406 25.242188 57.691406 C 23 57.691406 21.183594 59.511719 21.183594 61.761719 C 21.183594 62.847656 21.609375 63.832031 22.300781 64.5625 L 28.324219 70.691406 L 34.992188 64.253906 C 35.523438 63.5625 35.84375 62.699219 35.84375 61.761719 " fill-opacity="1" fill-rule="nonzero"/></g></svg>