<svg id="Layer_1" data-name="Layer 1" xmlns="http://www.w3.org/2000/svg" xmlns:xlink="http://www.w3.org/1999/xlink" viewBox="0 0 216.73 36.98"><defs><style>.cls-1{fill:none;}.cls-2{clip-path:url(#clip-path);}.cls-3{fill:#f57c67;}.cls-4{clip-path:url(#clip-path-2);}.cls-5{clip-path:url(#clip-path-3);}.cls-6{fill:#ee3224;}.cls-7{clip-path:url(#clip-path-4);}.cls-8{clip-path:url(#clip-path-5);}.cls-9{clip-path:url(#clip-path-6);}.cls-10{clip-path:url(#clip-path-7);}.cls-11{clip-path:url(#clip-path-8);}.cls-12{clip-path:url(#clip-path-9);}.cls-13{clip-path:url(#clip-path-10);}.cls-14{clip-path:url(#clip-path-11);}.cls-15{clip-path:url(#clip-path-12);}</style><clipPath id="clip-path" transform="translate(-16.65 -76.92)"><rect class="cls-1" x="102.67" y="78.67" width="19.65" height="35.24"/></clipPath><clipPath id="clip-path-2" transform="translate(-16.65 -76.92)"><rect class="cls-1" x="77.33" y="78.67" width="20" height="35.24"/></clipPath><clipPath id="clip-path-3" transform="translate(-16.65 -76.92)"><rect class="cls-1" x="89.33" y="76.98" width="20" height="17.68"/></clipPath><clipPath id="clip-path-4" transform="translate(-16.65 -76.92)"><rect class="cls-1" x="160" y="78.67" width="20" height="35.24"/></clipPath><clipPath id="clip-path-5" transform="translate(-16.65 -76.92)"><rect class="cls-1" x="134.9" y="78.67" width="19.77" height="35.24"/></clipPath><clipPath id="clip-path-6" transform="translate(-16.65 -76.92)"><rect class="cls-1" x="146.67" y="76.98" width="21.33" height="17.68"/></clipPath><clipPath id="clip-path-7" transform="translate(-16.65 -76.92)"><rect class="cls-1" x="214.67" y="78.67" width="19.49" height="35.17"/></clipPath><clipPath id="clip-path-8" transform="translate(-16.65 -76.92)"><rect class="cls-1" x="189.33" y="78.67" width="20" height="35.17"/></clipPath><clipPath id="clip-path-9" transform="translate(-16.65 -76.92)"><rect class="cls-1" x="200" y="76.92" width="21.33" height="17.74"/></clipPath><clipPath id="clip-path-10" transform="translate(-16.65 -76.92)"><rect class="cls-1" x="41.33" y="78.67" width="19.76" height="35.17"/></clipPath><clipPath id="clip-path-11" transform="translate(-16.65 -76.92)"><rect class="cls-1" x="16" y="78.67" width="20" height="35.17"/></clipPath><clipPath id="clip-path-12" transform="translate(-16.65 -76.92)"><rect class="cls-1" x="28" y="76.92" width="20" height="17.74"/></clipPath></defs><g class="cls-2"><path class="cls-3" d="M119.27,79.59a2.28,2.28,0,0,0-2,2.61c.08,3.72-.42,8-2.46,11a13.12,13.12,0,0,1-2.91,3l1.58-3a1.94,1.94,0,0,0-.83-2.61,1.92,1.92,0,0,0-2.6.82l-4.75,9.13c-4.42,6.14-1.66,13.39-1.66,13.39l6.81,0a12.81,12.81,0,0,1,2.19-6.49c9.6-11.32,8.89-22.29,8.84-25.1,0-1.65-.9-2.89-2.25-2.73" transform="translate(-16.65 -76.92)"/></g><g class="cls-4"><path class="cls-3" d="M80.16,79.59a2.28,2.28,0,0,1,2,2.61c-.09,3.72.42,8,2.45,11a13.55,13.55,0,0,0,2.91,3l-1.57-3a1.93,1.93,0,0,1,3.43-1.79l4.75,9.13c4.42,6.14,1.66,13.39,1.66,13.39l-6.82,0a12.74,12.74,0,0,0-2.18-6.49c-9.61-11.32-8.9-22.29-8.84-25.1,0-1.65.9-2.89,2.24-2.73" transform="translate(-16.65 -76.92)"/></g><g class="cls-5"><path class="cls-6" d="M109,82.41a5.4,5.4,0,0,0-9.77-3.21,5.42,5.42,0,1,0-8.28,7l8,8.17,8.9-8.59A5.47,5.47,0,0,0,109,82.41" transform="translate(-16.65 -76.92)"/></g><g class="cls-7"><path class="cls-3" d="M177.05,79.59a2.28,2.28,0,0,0-2,2.61c.08,3.72-.42,8-2.46,11a13.12,13.12,0,0,1-2.91,3l1.57-3a1.93,1.93,0,0,0-3.43-1.79l-4.75,9.13c-4.41,6.14-1.66,13.39-1.66,13.39l6.83,0a12.74,12.74,0,0,1,2.18-6.49c9.6-11.32,8.89-22.29,8.83-25.1,0-1.65-.89-2.89-2.24-2.73" transform="translate(-16.65 -76.92)"/></g><g class="cls-8"><path class="cls-3" d="M137.94,79.59a2.27,2.27,0,0,1,2,2.61c-.08,3.72.43,8,2.46,11a13.33,13.33,0,0,0,2.91,3l-1.57-3a1.93,1.93,0,1,1,3.43-1.79l4.75,9.13c4.42,6.14,1.66,13.39,1.66,13.39l-6.82,0a12.84,12.84,0,0,0-2.18-6.49c-9.61-11.32-8.9-22.29-8.84-25.1,0-1.65.9-2.89,2.24-2.73" transform="translate(-16.65 -76.92)"/></g><g class="cls-9"><path class="cls-6" d="M166.8,82.41A5.4,5.4,0,0,0,157,79.2a5.42,5.42,0,1,0-8.29,7l8,8.17,8.89-8.59a5.41,5.41,0,0,0,1.13-3.32" transform="translate(-16.65 -76.92)"/></g><g class="cls-10"><path class="cls-3" d="M231.11,79.53a2.28,2.28,0,0,0-2,2.61c.08,3.72-.43,8-2.46,11a13.5,13.5,0,0,1-2.9,3l1.56-3a1.93,1.93,0,1,0-3.42-1.79l-4.75,9.13c-4.42,6.13-1.66,13.38-1.66,13.38l6.81,0a12.75,12.75,0,0,1,2.19-6.48c9.6-11.32,8.9-22.3,8.83-25.1,0-1.65-.89-2.89-2.24-2.73" transform="translate(-16.65 -76.92)"/></g><g class="cls-11"><path class="cls-3" d="M192,79.53a2.28,2.28,0,0,1,2,2.61c-.08,3.72.43,8,2.46,11a13.78,13.78,0,0,0,2.91,3l-1.57-3a1.93,1.93,0,1,1,3.43-1.79l4.75,9.13c4.41,6.13,1.66,13.38,1.66,13.38l-6.82,0a12.75,12.75,0,0,0-2.19-6.48c-9.6-11.32-8.89-22.3-8.83-25.1,0-1.65.9-2.89,2.25-2.73" transform="translate(-16.65 -76.92)"/></g><g class="cls-12"><path class="cls-6" d="M220.86,82.35a5.4,5.4,0,0,0-9.77-3.21,5.41,5.41,0,1,0-8.28,6.94l8,8.18,8.88-8.59a5.36,5.36,0,0,0,1.14-3.32" transform="translate(-16.65 -76.92)"/></g><g class="cls-13"><path class="cls-3" d="M58,79.53a2.28,2.28,0,0,0-2,2.61c.08,3.72-.42,8-2.46,11a13.78,13.78,0,0,1-2.91,3l1.57-3a1.93,1.93,0,1,0-3.43-1.79l-4.75,9.13c-4.41,6.13-1.66,13.38-1.66,13.38l6.83,0a12.68,12.68,0,0,1,2.18-6.48c9.6-11.32,8.89-22.3,8.83-25.1,0-1.65-.89-2.89-2.24-2.73" transform="translate(-16.65 -76.92)"/></g><g class="cls-14"><path class="cls-3" d="M18.93,79.53a2.27,2.27,0,0,1,2,2.61c-.08,3.72.43,8,2.46,11a13.55,13.55,0,0,0,2.91,3l-1.57-3a1.93,1.93,0,1,1,3.42-1.79l4.76,9.13c4.42,6.13,1.66,13.38,1.66,13.38l-6.82,0a12.79,12.79,0,0,0-2.18-6.48c-9.61-11.32-8.9-22.3-8.84-25.1,0-1.65.9-2.89,2.24-2.73" transform="translate(-16.65 -76.92)"/></g><g class="cls-15"><path class="cls-6" d="M47.79,82.35A5.4,5.4,0,0,0,38,79.14a5.42,5.42,0,1,0-8.29,6.94l8,8.18,8.89-8.59a5.47,5.47,0,0,0,1.13-3.32" transform="translate(-16.65 -76.92)"/></g></svg>