<svg xmlns="http://www.w3.org/2000/svg" xmlns:xlink="http://www.w3.org/1999/xlink" width="250" zoomAndPan="magnify" viewBox="0 0 187.5 187.499992" height="250" preserveAspectRatio="xMidYMid meet" version="1.0"><defs><clipPath id="id1"><path d="M 52.492188 64.285156 L 144.742188 64.285156 L 144.742188 136.285156 L 52.492188 136.285156 Z M 52.492188 64.285156 " clip-rule="nonzero"/></clipPath></defs><g clip-path="url(#id1)"><path fill="#000000" d="M 124.617188 109.273438 C 119.769531 108.765625 116.96875 104.648438 116.628906 100.933594 C 115.910156 92.972656 121.609375 88.003906 127.277344 86.910156 C 131.054688 86.179688 135.777344 87.519531 137.542969 90.699219 C 142.40625 99.476562 133.441406 110.199219 124.617188 109.273438 Z M 117.394531 122.15625 C 116.824219 125.515625 113.921875 130.261719 109.785156 130.496094 C 106.445312 130.683594 102.539062 127.445312 98.382812 127.464844 C 93.21875 127.488281 89.144531 132.054688 84.3125 129.738281 C 80.253906 127.792969 78.613281 119.921875 79.371094 114.199219 C 80.464844 105.945312 86.550781 100.039062 94.578125 98.660156 C 107.902344 96.367188 120.132812 105.9375 117.394531 122.15625 Z M 58.460938 93.730469 C 60.519531 80.683594 83.925781 87.335938 79.75 102.449219 C 74.007812 114.949219 56.503906 106.121094 58.460938 93.730469 Z M 80.265625 73.136719 C 88.6875 62.9375 105.460938 80.519531 94.164062 91.425781 C 82.851562 99.285156 72.269531 82.816406 80.265625 73.136719 Z M 111.15625 70.460938 C 124.21875 68.246094 125.359375 92.484375 109.65625 93.359375 C 95.941406 91.917969 98.753906 72.5625 111.15625 70.460938 Z M 142.617188 87.902344 C 140.269531 83.667969 135.066406 80.933594 129.363281 80.933594 C 128.558594 80.933594 127.761719 80.988281 126.984375 81.097656 C 126.992188 80.757812 126.992188 80.417969 126.984375 80.078125 C 126.875 76.203125 125.644531 72.554688 123.523438 69.808594 C 120.894531 66.40625 117.085938 64.535156 112.796875 64.535156 C 111.941406 64.535156 111.0625 64.613281 110.183594 64.761719 C 105.933594 65.480469 102.128906 67.675781 99.332031 70.992188 C 98.394531 69.839844 97.335938 68.792969 96.1875 67.894531 C 93.222656 65.566406 89.738281 64.285156 86.378906 64.285156 C 82.246094 64.285156 78.585938 66.074219 75.789062 69.460938 C 72.929688 72.921875 71.527344 77.207031 71.667969 81.582031 C 70.144531 81.195312 68.585938 80.988281 67.042969 80.988281 C 63.628906 80.988281 60.511719 81.960938 58.027344 83.796875 C 55.160156 85.921875 53.328125 89.046875 52.730469 92.832031 C 51.890625 98.136719 53.410156 103.371094 57.007812 107.566406 C 60.613281 111.769531 65.839844 114.28125 70.992188 114.28125 C 71.859375 114.28125 72.710938 114.207031 73.546875 114.066406 C 73.175781 117.597656 73.519531 121.660156 74.496094 125.074219 C 75.875 129.90625 78.402344 133.320312 81.800781 134.949219 C 83.496094 135.765625 85.304688 136.175781 87.167969 136.175781 C 90.074219 136.175781 92.488281 135.210938 94.617188 134.359375 C 96.046875 133.789062 97.398438 133.25 98.414062 133.246094 L 98.425781 133.246094 C 99.398438 133.25 100.953125 133.886719 102.328125 134.449219 C 104.425781 135.308594 106.804688 136.285156 109.5 136.285156 C 109.703125 136.285156 109.914062 136.28125 110.117188 136.269531 C 113.597656 136.074219 116.769531 134.359375 119.28125 131.320312 C 121.203125 129 122.632812 125.933594 123.109375 123.117188 C 123.585938 120.304688 123.691406 117.566406 123.441406 114.949219 C 123.625 114.976562 123.816406 115 124.003906 115.019531 C 124.5625 115.078125 125.128906 115.109375 125.695312 115.109375 C 132.105469 115.109375 138.539062 111.238281 142.082031 105.25 C 145.410156 99.625 145.609375 93.296875 142.617188 87.902344 " fill-opacity="1" fill-rule="evenodd"/></g></svg>