<svg xmlns="http://www.w3.org/2000/svg" xmlns:xlink="http://www.w3.org/1999/xlink" width="250" zoomAndPan="magnify" viewBox="0 0 187.5 187.499992" height="250" preserveAspectRatio="xMidYMid meet" version="1.0"><defs><clipPath id="id1"><path d="M 41.914062 42.4375 L 145.414062 42.4375 L 145.414062 136.9375 L 41.914062 136.9375 Z M 41.914062 42.4375 " clip-rule="nonzero"/></clipPath></defs><g clip-path="url(#id1)"><path fill="#03989e" d="M 145.390625 69.964844 C 145.355469 68.203125 145.1875 66.445312 144.851562 64.699219 C 144.183594 61.226562 142.886719 57.851562 140.996094 54.824219 C 139.101562 51.796875 136.601562 49.140625 133.652344 47.082031 C 132.179688 46.050781 130.597656 45.1875 128.957031 44.472656 C 127.316406 43.742188 125.617188 43.167969 123.867188 42.84375 C 123.4375 42.746094 122.992188 42.699219 122.550781 42.640625 L 122.214844 42.59375 L 121.878906 42.566406 L 121.21875 42.519531 C 120.777344 42.484375 120.332031 42.496094 119.902344 42.496094 C 119.6875 42.496094 119.460938 42.496094 119.242188 42.507812 L 118.585938 42.542969 L 117.925781 42.578125 C 117.710938 42.59375 117.496094 42.628906 117.28125 42.640625 C 116.847656 42.6875 116.417969 42.722656 115.984375 42.785156 C 115.554688 42.855469 115.125 42.925781 114.691406 43.011719 L 114.367188 43.070312 L 114.046875 43.140625 L 113.410156 43.296875 C 111.722656 43.730469 110.082031 44.316406 108.546875 45.105469 C 107.015625 45.882812 105.589844 46.816406 104.285156 47.871094 C 102.976562 48.921875 101.792969 50.085938 100.726562 51.316406 C 99.660156 52.550781 98.703125 53.855469 97.828125 55.195312 C 97.601562 55.53125 97.394531 55.878906 97.191406 56.210938 C 97.085938 56.378906 96.988281 56.558594 96.882812 56.726562 L 96.582031 57.242188 C 96.199219 57.9375 95.804688 58.628906 95.457031 59.335938 C 95.097656 60.042969 94.761719 60.761719 94.449219 61.476562 L 94.222656 62.027344 L 94.007812 62.578125 C 93.933594 62.757812 93.863281 62.949219 93.792969 63.128906 L 93.695312 63.40625 L 93.660156 63.5 C 93.539062 63.179688 93.417969 62.84375 93.289062 62.519531 C 93.144531 62.148438 92.988281 61.789062 92.832031 61.429688 L 92.59375 60.890625 L 92.34375 60.367188 C 92.257812 60.1875 92.175781 60.007812 92.089844 59.828125 C 92.007812 59.648438 91.910156 59.46875 91.828125 59.300781 C 91.480469 58.59375 91.085938 57.898438 90.699219 57.207031 L 90.402344 56.691406 C 90.304688 56.523438 90.199219 56.34375 90.089844 56.175781 C 89.875 55.839844 89.671875 55.492188 89.441406 55.171875 C 88.570312 53.832031 87.597656 52.539062 86.53125 51.316406 C 85.464844 50.085938 84.28125 48.933594 82.976562 47.882812 C 81.667969 46.839844 80.246094 45.90625 78.710938 45.128906 C 77.179688 44.351562 75.535156 43.765625 73.859375 43.347656 C 73.023438 43.117188 72.160156 42.976562 71.308594 42.832031 C 70.878906 42.769531 70.445312 42.734375 70.015625 42.6875 C 69.800781 42.664062 69.585938 42.640625 69.367188 42.628906 L 68.722656 42.59375 L 68.0625 42.554688 C 67.847656 42.554688 67.621094 42.554688 67.402344 42.542969 C 66.960938 42.542969 66.53125 42.53125 66.085938 42.566406 C 65.199219 42.605469 64.324219 42.710938 63.453125 42.867188 L 62.792969 43 C 62.578125 43.046875 62.363281 43.082031 62.144531 43.140625 C 61.714844 43.261719 61.285156 43.382812 60.863281 43.511719 C 60.445312 43.65625 60.015625 43.800781 59.605469 43.96875 C 59.1875 44.136719 58.78125 44.304688 58.371094 44.484375 C 57.964844 44.675781 57.558594 44.855469 57.152344 45.058594 C 56.753906 45.261719 56.359375 45.464844 55.964844 45.679688 C 55.582031 45.90625 55.1875 46.132812 54.804688 46.363281 C 54.433594 46.613281 54.050781 46.851562 53.675781 47.105469 C 50.695312 49.164062 48.191406 51.832031 46.3125 54.859375 C 44.417969 57.886719 43.125 61.261719 42.464844 64.734375 C 42.132812 66.46875 41.964844 68.242188 41.925781 70 C 41.925781 70.109375 41.914062 70.214844 41.914062 70.335938 L 41.925781 70.683594 L 41.9375 71.386719 C 41.9375 71.628906 41.964844 71.855469 41.988281 72.082031 L 42.046875 72.777344 C 42.058594 72.894531 42.070312 73.003906 42.082031 73.125 L 42.132812 73.457031 L 42.226562 74.128906 C 42.296875 74.570312 42.394531 75.015625 42.476562 75.457031 C 42.851562 77.203125 43.375 78.867188 43.988281 80.472656 C 44.597656 82.078125 45.292969 83.621094 46.046875 85.117188 C 46.800781 86.613281 47.617188 88.058594 48.46875 89.472656 C 49.316406 90.886719 50.214844 92.261719 51.136719 93.613281 C 52.0625 94.964844 53.007812 96.28125 53.988281 97.574219 C 54.960938 98.878906 55.964844 100.148438 56.984375 101.40625 C 58 102.664062 59.042969 103.894531 60.085938 105.117188 C 61.140625 106.335938 62.207031 107.535156 63.285156 108.71875 C 65.453125 111.089844 67.65625 113.410156 69.917969 115.671875 C 72.183594 117.933594 74.472656 120.160156 76.808594 122.339844 C 79.140625 124.515625 81.515625 126.660156 83.910156 128.753906 C 85.105469 129.808594 86.316406 130.847656 87.539062 131.878906 C 88.148438 132.390625 88.761719 132.90625 89.382812 133.421875 L 90.316406 134.1875 L 91.277344 134.964844 L 93.660156 136.890625 L 96.042969 134.964844 L 97 134.1875 L 97.933594 133.421875 C 98.558594 132.90625 99.167969 132.390625 99.78125 131.878906 C 101 130.847656 102.210938 129.808594 103.421875 128.753906 C 105.828125 126.660156 108.199219 124.515625 110.523438 122.339844 C 112.859375 120.160156 115.160156 117.933594 117.410156 115.671875 C 119.664062 113.398438 121.878906 111.089844 124.046875 108.707031 C 125.125 107.519531 126.203125 106.3125 127.246094 105.105469 C 128.289062 103.882812 129.328125 102.648438 130.347656 101.394531 C 131.367188 100.136719 132.371094 98.867188 133.339844 97.5625 C 134.3125 96.269531 135.269531 94.941406 136.191406 93.589844 C 137.113281 92.238281 138.011719 90.859375 138.863281 89.449219 C 139.714844 88.035156 140.527344 86.589844 141.28125 85.09375 C 142.039062 83.597656 142.730469 82.050781 143.34375 80.449219 C 143.953125 78.84375 144.480469 77.167969 144.851562 75.421875 L 144.984375 74.761719 L 145.042969 74.429688 C 145.066406 74.320312 145.078125 74.214844 145.105469 74.09375 L 145.199219 73.421875 C 145.222656 73.195312 145.273438 72.980469 145.285156 72.742188 L 145.34375 72.046875 C 145.367188 71.820312 145.378906 71.589844 145.390625 71.351562 L 145.402344 70.644531 L 145.414062 70.300781 Z M 138.695312 70.527344 L 138.671875 71.003906 C 138.671875 71.160156 138.648438 71.328125 138.636719 71.484375 L 138.589844 71.976562 C 138.574219 72.128906 138.539062 72.296875 138.515625 72.464844 L 138.433594 72.957031 C 138.421875 73.039062 138.410156 73.125 138.382812 73.207031 L 138.335938 73.457031 L 138.230469 73.949219 C 137.917969 75.277344 137.472656 76.617188 136.945312 77.945312 C 136.40625 79.277344 135.785156 80.59375 135.101562 81.898438 C 134.417969 83.203125 133.652344 84.480469 132.863281 85.761719 C 132.070312 87.03125 131.222656 88.289062 130.347656 89.519531 C 126.824219 94.464844 122.8125 99.15625 118.597656 103.667969 C 116.488281 105.929688 114.320312 108.144531 112.105469 110.320312 C 109.902344 112.5 107.636719 114.644531 105.363281 116.75 C 103.074219 118.855469 100.75 120.925781 98.402344 122.972656 C 97.230469 123.988281 96.042969 125.007812 94.855469 126 C 94.460938 126.335938 94.066406 126.660156 93.671875 126.980469 C 93.277344 126.660156 92.878906 126.335938 92.496094 126 C 91.3125 125.007812 90.125 123.988281 88.953125 122.972656 C 86.605469 120.9375 84.292969 118.855469 81.992188 116.75 C 79.707031 114.644531 77.453125 112.5 75.25 110.320312 C 73.035156 108.144531 70.867188 105.929688 68.757812 103.679688 C 64.542969 99.167969 60.527344 94.476562 57.007812 89.53125 C 56.132812 88.300781 55.28125 87.042969 54.492188 85.773438 C 53.703125 84.507812 52.933594 83.226562 52.253906 81.921875 C 51.570312 80.617188 50.945312 79.300781 50.40625 77.972656 C 49.867188 76.640625 49.425781 75.300781 49.113281 73.972656 C 49.042969 73.636719 48.96875 73.316406 48.910156 72.980469 L 48.828125 72.488281 L 48.789062 72.238281 C 48.777344 72.15625 48.765625 72.070312 48.753906 72 L 48.707031 71.507812 C 48.695312 71.351562 48.671875 71.183594 48.671875 71.027344 L 48.636719 70.3125 C 48.636719 70.226562 48.636719 70.144531 48.636719 70.046875 C 48.636719 68.660156 48.742188 67.269531 48.980469 65.917969 C 49.460938 63.203125 50.40625 60.570312 51.820312 58.234375 C 53.234375 55.902344 55.101562 53.855469 57.308594 52.261719 L 58.144531 51.6875 L 59.019531 51.160156 L 59.917969 50.683594 C 60.230469 50.539062 60.539062 50.394531 60.839844 50.25 C 61.152344 50.121094 61.476562 50.011719 61.796875 49.878906 C 62.121094 49.773438 62.445312 49.664062 62.769531 49.558594 C 63.09375 49.449219 63.425781 49.367188 63.75 49.269531 C 63.917969 49.210938 64.085938 49.1875 64.242188 49.140625 L 64.746094 49.007812 C 65.414062 48.839844 66.085938 48.671875 66.769531 48.539062 C 67.105469 48.457031 67.453125 48.398438 67.800781 48.335938 C 67.96875 48.3125 68.148438 48.277344 68.328125 48.242188 L 68.851562 48.179688 L 69.378906 48.121094 C 69.558594 48.097656 69.738281 48.097656 69.90625 48.085938 L 70.972656 48.015625 C 71.332031 48.015625 71.679688 48.015625 72.039062 48 L 72.304688 48 C 72.398438 48 72.484375 48.015625 72.566406 48.015625 L 73.105469 48.039062 C 75.957031 48.15625 78.84375 48.816406 81.550781 50.109375 C 82.902344 50.742188 84.207031 51.542969 85.429688 52.476562 C 86.652344 53.410156 87.789062 54.476562 88.820312 55.648438 C 89.335938 56.234375 89.816406 56.847656 90.28125 57.480469 C 90.738281 58.113281 91.167969 58.773438 91.5625 59.445312 C 92.367188 60.796875 93.058594 62.207031 93.574219 63.691406 C 93.585938 63.742188 93.648438 63.777344 93.695312 63.753906 C 93.753906 63.726562 93.765625 63.667969 93.765625 63.679688 L 93.792969 63.609375 L 93.839844 63.464844 L 93.945312 63.191406 C 94.019531 63.011719 94.089844 62.820312 94.164062 62.640625 C 94.234375 62.460938 94.316406 62.28125 94.390625 62.101562 L 94.628906 61.5625 C 94.964844 60.855469 95.335938 60.160156 95.742188 59.480469 C 96.140625 58.796875 96.582031 58.152344 97.023438 57.515625 C 97.492188 56.882812 97.972656 56.273438 98.488281 55.6875 C 99.515625 54.511719 100.65625 53.449219 101.863281 52.515625 C 103.085938 51.582031 104.390625 50.789062 105.746094 50.144531 C 107.097656 49.496094 108.5 49.007812 109.914062 48.671875 L 110.980469 48.445312 L 112.046875 48.277344 C 112.128906 48.265625 112.226562 48.242188 112.308594 48.230469 L 112.574219 48.207031 L 113.109375 48.15625 C 113.289062 48.144531 113.46875 48.121094 113.636719 48.109375 L 114.714844 48.0625 L 114.980469 48.050781 L 115.242188 48.050781 C 115.601562 48.0625 115.960938 48.0625 116.308594 48.0625 C 116.667969 48.074219 117.015625 48.109375 117.375 48.132812 C 117.554688 48.144531 117.734375 48.15625 117.902344 48.167969 L 118.429688 48.230469 L 118.957031 48.289062 C 119.136719 48.3125 119.304688 48.347656 119.472656 48.371094 C 119.820312 48.433594 120.167969 48.480469 120.5 48.5625 C 121.183594 48.695312 121.855469 48.839844 122.527344 48.996094 C 123.855469 49.316406 125.171875 49.6875 126.429688 50.214844 C 127.6875 50.742188 128.875 51.4375 129.976562 52.226562 C 132.179688 53.804688 134.058594 55.851562 135.472656 58.1875 C 136.898438 60.519531 137.855469 63.140625 138.324219 65.871094 C 138.5625 67.234375 138.671875 68.613281 138.671875 70.011719 L 138.671875 70.273438 Z M 138.695312 70.527344 " fill-opacity="1" fill-rule="nonzero"/></g><path fill="#03989e" d="M 96.871094 83.046875 C 95.839844 82.613281 94.75 82.398438 93.660156 82.398438 C 92.570312 82.398438 91.480469 82.613281 90.449219 83.046875 C 84.246094 85.667969 77.8125 94.308594 76.640625 100.757812 C 76.0625 103.941406 78.136719 107.042969 81.324219 107.628906 C 83.875 108.097656 86.855469 107.234375 89.097656 105.488281 C 89.203125 105.402344 89.324219 105.308594 89.441406 105.234375 C 91.035156 104.160156 92.34375 103.621094 93.660156 103.621094 C 94.964844 103.621094 96.28125 104.160156 97.875 105.234375 C 97.996094 105.320312 98.101562 105.402344 98.222656 105.488281 C 100.460938 107.234375 103.445312 108.097656 105.996094 107.628906 C 109.183594 107.042969 111.253906 103.941406 110.679688 100.757812 C 109.507812 94.308594 103.074219 85.65625 96.871094 83.046875 Z M 96.871094 83.046875 " fill-opacity="1" fill-rule="nonzero"/><path fill="#03989e" d="M 105.949219 67.605469 C 102.582031 60.570312 96.535156 64.710938 95.300781 70.621094 C 94.75 72.980469 94.820312 75.960938 96.152344 78.066406 C 101.660156 86.660156 108.847656 73.0625 105.949219 67.605469 Z M 105.949219 67.605469 " fill-opacity="1" fill-rule="nonzero"/><path fill="#03989e" d="M 91.15625 78.066406 C 92.484375 75.960938 92.570312 72.980469 92.007812 70.621094 C 90.785156 64.710938 84.722656 60.570312 81.359375 67.605469 C 78.472656 73.0625 85.671875 86.660156 91.15625 78.066406 Z M 91.15625 78.066406 " fill-opacity="1" fill-rule="nonzero"/><path fill="#03989e" d="M 106.847656 81.382812 C 106.175781 83.464844 106.019531 86.167969 107.074219 88.167969 C 111.398438 96.332031 118.882812 84.589844 116.679688 79.441406 C 114.164062 72.835938 108.390625 76.128906 106.847656 81.382812 Z M 106.847656 81.382812 " fill-opacity="1" fill-rule="nonzero"/><path fill="#03989e" d="M 80.246094 88.15625 C 81.285156 86.15625 81.144531 83.464844 80.472656 81.371094 C 78.925781 76.128906 73.164062 72.835938 70.648438 79.429688 C 68.433594 84.578125 75.921875 96.320312 80.246094 88.15625 Z M 80.246094 88.15625 " fill-opacity="1" fill-rule="nonzero"/></svg>