<svg id="Layer_1" data-name="Layer 1" xmlns="http://www.w3.org/2000/svg" viewBox="0 0 236.38 37.48"><defs><style>.cls-1{fill:#03989e;}</style></defs><path class="cls-1" d="M199,117.79v-.12c-.1-1.6-1.73-2.67-3.24-3-1.36-.34-3.21,0-3.69,1.47a1.37,1.37,0,0,0,0,.64c.41,1.83,2.49,2.87,4.31,2.82A2.45,2.45,0,0,0,199,117.79Zm.7-6.68a2.3,2.3,0,0,0-1.81-2.13c-1.88-.54-4.37,0-5.2,1.87a1.5,1.5,0,0,0-.08.55c.08,1.33,1.53,2,2.76,2.14,1.62.15,3.58-.44,4.23-2A1.58,1.58,0,0,0,199.66,111.11Zm-6.73,10.3c.09-1.7-1.53-3.06-3.15-3.42-1.16-.36-2.82.07-3.06,1.35-.19,1.82,1.68,3.28,3.41,3.53C191.26,123.12,192.72,122.63,192.93,121.41Zm1.33-14.85a1.73,1.73,0,0,0-1-1.8c-2-.86-4.69.1-5.36,2.12a1.72,1.72,0,0,0,1.16,2,4.29,4.29,0,0,0,4.89-1.52A1.67,1.67,0,0,0,194.26,106.56Zm-4.54,7.16a5.05,5.05,0,0,0-1.41-4,10.9,10.9,0,0,0-4.19-2.62,2,2,0,0,0-2.73,1.4c-.21,1.45.68,2.81.59,4.27.05,1.24-.74,2.26-1.3,3.31a2,2,0,0,0,.48,2.81c1,.5,2.23.07,3.23-.27a12,12,0,0,0,4.53-3A3.58,3.58,0,0,0,189.72,113.72Z" transform="translate(-7 -86.04)"/><path class="cls-1" d="M68.74,98.7s0-.08,0-.12c-.45-1.54-2.28-2.22-3.82-2.18s-3.12.74-3.27,2.24a1.31,1.31,0,0,0,.1.64c.81,1.69,3.06,2.25,4.83,1.8C67.72,100.88,68.89,99.9,68.74,98.7ZM67.94,92a2.33,2.33,0,0,0-2.24-1.68c-2-.12-4.25,1-4.65,3a1.5,1.5,0,0,0,0,.56c.37,1.27,1.95,1.66,3.17,1.47,1.61-.21,3.4-1.21,3.67-2.88A1.31,1.31,0,0,0,67.94,92Zm-4.27,11.53c-.29-1.68-2.18-2.65-3.84-2.64-1.2-.1-2.73.68-2.68,2,.22,1.8,2.37,2.82,4.11,2.69C62.42,105.59,63.73,104.79,63.67,103.56Zm-2-14.78a1.74,1.74,0,0,0-1.38-1.54c-2.11-.4-4.56,1.14-4.76,3.25a1.72,1.72,0,0,0,1.57,1.7,4.29,4.29,0,0,0,4.44-2.56A1.69,1.69,0,0,0,61.66,88.78Zm-2.83,8a5.06,5.06,0,0,0-2.27-3.57,10.84,10.84,0,0,0-4.66-1.63,1.94,1.94,0,0,0-2.35,2c.12,1.46,1.29,2.6,1.52,4,.33,1.21-.22,2.38-.53,3.53a2,2,0,0,0,1.09,2.62,4.29,4.29,0,0,0,3.09-1,11.82,11.82,0,0,0,3.76-3.92A3.61,3.61,0,0,0,58.83,96.77Z" transform="translate(-7 -86.04)"/><path class="cls-1" d="M25.61,118.63a.49.49,0,0,1,0-.12c-.05-1.61-1.65-2.72-3.15-3.07s-3.21,0-3.74,1.36a1.38,1.38,0,0,0-.05.64c.35,1.84,2.39,2.94,4.22,3A2.45,2.45,0,0,0,25.61,118.63Zm.9-6.66a2.3,2.3,0,0,0-1.74-2.18c-1.87-.6-4.37-.11-5.26,1.72a1.23,1.23,0,0,0-.09.54c0,1.33,1.46,2.1,2.69,2.22,1.61.2,3.59-.34,4.29-1.87A1.7,1.7,0,0,0,26.51,112Zm-7,10.1c.14-1.7-1.44-3.11-3-3.51-1.14-.4-2.81,0-3.09,1.25-.25,1.81,1.58,3.33,3.3,3.63C17.75,123.72,19.23,123.28,19.47,122.07Zm1.79-14.81a1.76,1.76,0,0,0-1-1.83c-1.94-.92-4.7,0-5.42,2a1.71,1.71,0,0,0,1.09,2,4.29,4.29,0,0,0,4.94-1.38A1.87,1.87,0,0,0,21.26,107.26Zm-4.76,7a5,5,0,0,0-1.3-4,10.72,10.72,0,0,0-4.1-2.75,2,2,0,0,0-2.77,1.32c-.26,1.44.59,2.83.46,4.28,0,1.25-.81,2.25-1.4,3.28a2,2,0,0,0,.39,2.81c1,.54,2.23.14,3.24-.17a11.88,11.88,0,0,0,4.62-2.87A3.59,3.59,0,0,0,16.5,114.29Z" transform="translate(-7 -86.04)"/><path class="cls-1" d="M154.47,97.53a.36.36,0,0,0,0-.11c-.55-1.52-2.41-2.09-3.95-2s-3.07.93-3.13,2.44a1.24,1.24,0,0,0,.15.62c.9,1.65,3.19,2.06,4.93,1.51A2.41,2.41,0,0,0,154.47,97.53Zm-1.2-6.6a2.32,2.32,0,0,0-2.34-1.54c-2,0-4.19,1.24-4.47,3.25a1.42,1.42,0,0,0,.08.54c.45,1.26,2.05,1.55,3.26,1.29,1.59-.31,3.31-1.43,3.49-3.11A2,2,0,0,0,153.27,90.93Zm-3.56,11.76c-.39-1.66-2.33-2.51-4-2.4-1.21,0-2.68.85-2.55,2.15.33,1.79,2.53,2.67,4.26,2.44C148.59,104.8,149.85,103.92,149.71,102.69ZM146.8,88.06a1.76,1.76,0,0,0-1.48-1.45c-2.13-.28-4.47,1.41-4.54,3.54a1.7,1.7,0,0,0,1.67,1.59,4.24,4.24,0,0,0,4.26-2.82A1.7,1.7,0,0,0,146.8,88.06Zm-2.33,8.14A5.13,5.13,0,0,0,142,92.79a10.94,10.94,0,0,0-4.75-1.35A2,2,0,0,0,135,93.55c.21,1.44,1.45,2.51,1.77,3.93.4,1.18-.07,2.38-.31,3.55a2,2,0,0,0,1.25,2.55c1.12.2,2.16-.55,3-1.16a11.91,11.91,0,0,0,3.51-4.14A3.74,3.74,0,0,0,144.47,96.2Z" transform="translate(-7 -86.04)"/><path class="cls-1" d="M109.07,115s0-.08,0-.12c-.1-1.61-1.73-2.67-3.24-3s-3.21,0-3.69,1.47a1.4,1.4,0,0,0-.05.64c.42,1.83,2.49,2.87,4.32,2.82A2.43,2.43,0,0,0,109.07,115Zm.71-6.68a2.32,2.32,0,0,0-1.81-2.13c-1.89-.55-4.37,0-5.2,1.87a1.27,1.27,0,0,0-.08.55c.07,1.33,1.52,2.05,2.75,2.14,1.62.14,3.59-.44,4.23-2A1.63,1.63,0,0,0,109.78,108.28ZM103,118.58c.09-1.7-1.53-3.07-3.15-3.42-1.16-.36-2.81.06-3.06,1.35-.19,1.81,1.68,3.27,3.4,3.53C101.36,120.28,102.83,119.79,103,118.58Zm1.34-14.86a1.74,1.74,0,0,0-1-1.8c-2-.86-4.69.1-5.36,2.13a1.71,1.71,0,0,0,1.15,2,4.29,4.29,0,0,0,4.9-1.52A1.69,1.69,0,0,0,104.38,103.72Zm-4.54,7.17a5.08,5.08,0,0,0-1.42-4,11,11,0,0,0-4.18-2.63,2,2,0,0,0-2.73,1.4c-.22,1.45.68,2.82.58,4.27.06,1.24-.74,2.26-1.3,3.32a2,2,0,0,0,.48,2.8,4.28,4.28,0,0,0,3.23-.27,12,12,0,0,0,4.54-3A3.63,3.63,0,0,0,99.84,110.89Z" transform="translate(-7 -86.04)"/><path class="cls-1" d="M243.36,97.61s0-.07,0-.12c-.45-1.54-2.27-2.23-3.81-2.2s-3.13.73-3.29,2.22a1.39,1.39,0,0,0,.1.64c.8,1.7,3.05,2.27,4.82,1.83C242.33,99.79,243.51,98.81,243.36,97.61Zm-.76-6.67a2.31,2.31,0,0,0-2.22-1.69c-2-.13-4.27,1-4.68,3a1.4,1.4,0,0,0,0,.54c.36,1.29,1.94,1.68,3.16,1.5,1.62-.2,3.4-1.2,3.69-2.86A1.31,1.31,0,0,0,242.6,90.94Zm-4.34,11.51c-.28-1.69-2.16-2.67-3.82-2.67-1.21-.1-2.73.67-2.69,2,.21,1.81,2.35,2.83,4.09,2.71,1.16,0,2.49-.79,2.43-2Zm-1.92-14.79A1.73,1.73,0,0,0,235,86.11a4.09,4.09,0,0,0-4.77,3.23,1.73,1.73,0,0,0,1.57,1.7,4.27,4.27,0,0,0,4.44-2.53A1.7,1.7,0,0,0,236.34,87.66Zm-2.87,8a5.09,5.09,0,0,0-2.25-3.58,10.89,10.89,0,0,0-4.65-1.66,2,2,0,0,0-2.37,2c.11,1.46,1.28,2.6,1.5,4,.33,1.21-.23,2.38-.54,3.52a2,2,0,0,0,1.07,2.64,4.33,4.33,0,0,0,3.1-1,11.7,11.7,0,0,0,3.77-3.9A3.58,3.58,0,0,0,233.47,95.63Z" transform="translate(-7 -86.04)"/></svg>