<svg xmlns="http://www.w3.org/2000/svg" xmlns:xlink="http://www.w3.org/1999/xlink" width="250" zoomAndPan="magnify" viewBox="0 0 187.5 187.499992" height="250" preserveAspectRatio="xMidYMid meet" version="1.0"><path fill="#03989e" d="M 149.21875 88.34375 C 149.21875 88.3125 149.222656 88.28125 149.222656 88.253906 C 149.148438 87.050781 147.925781 86.25 146.792969 86.023438 C 145.769531 85.769531 144.382812 86.054688 144.023438 87.125 C 143.972656 87.277344 143.96875 87.445312 143.992188 87.605469 C 144.300781 88.980469 145.859375 89.757812 147.226562 89.722656 C 148.105469 89.765625 149.125 89.246094 149.21875 88.34375 Z M 149.746094 83.335938 C 149.8125 82.597656 149.105469 81.9375 148.390625 81.738281 C 146.976562 81.328125 145.113281 81.75 144.488281 83.140625 C 144.441406 83.273438 144.421875 83.414062 144.425781 83.550781 C 144.484375 84.546875 145.574219 85.089844 146.496094 85.15625 C 147.710938 85.265625 149.183594 84.824219 149.667969 83.652344 C 149.710938 83.546875 149.734375 83.441406 149.746094 83.335938 Z M 144.695312 91.058594 C 144.761719 89.78125 143.546875 88.761719 142.332031 88.496094 C 141.464844 88.222656 140.222656 88.542969 140.039062 89.507812 C 139.898438 90.867188 141.296875 91.964844 142.59375 92.152344 C 143.441406 92.339844 144.539062 91.972656 144.695312 91.058594 Z M 145.695312 79.917969 C 145.765625 79.378906 145.488281 78.8125 144.9375 78.570312 C 143.464844 77.921875 141.421875 78.644531 140.917969 80.160156 C 140.726562 80.796875 141.179688 81.425781 141.785156 81.660156 C 143.078125 82.15625 144.710938 81.632812 145.457031 80.519531 C 145.589844 80.335938 145.671875 80.132812 145.695312 79.917969 Z M 142.292969 85.292969 C 142.414062 84.234375 141.980469 83.09375 141.230469 82.3125 C 140.34375 81.460938 139.289062 80.726562 138.089844 80.347656 C 137.246094 79.957031 136.152344 80.492188 136.042969 81.398438 C 135.882812 82.484375 136.554688 83.507812 136.484375 84.597656 C 136.523438 85.53125 135.929688 86.296875 135.507812 87.085938 C 135.113281 87.753906 135.121094 88.738281 135.867188 89.1875 C 136.636719 89.5625 137.539062 89.246094 138.292969 88.984375 C 139.53125 88.414062 140.835938 87.804688 141.691406 86.734375 C 142.042969 86.308594 142.234375 85.808594 142.292969 85.292969 Z M 142.292969 85.292969 " fill-opacity="1" fill-rule="nonzero"/><path fill="#03989e" d="M 51.554688 74.023438 C 51.550781 73.996094 51.546875 73.964844 51.542969 73.9375 C 51.203125 72.777344 49.832031 72.269531 48.675781 72.296875 C 47.621094 72.273438 46.332031 72.855469 46.21875 73.976562 C 46.203125 74.140625 46.238281 74.304688 46.296875 74.457031 C 46.902344 75.726562 48.59375 76.144531 49.921875 75.808594 C 50.789062 75.65625 51.664062 74.925781 51.554688 74.023438 Z M 50.957031 69.023438 C 50.855469 68.292969 50.019531 67.804688 49.277344 67.765625 C 47.808594 67.675781 46.085938 68.5 45.785156 69.992188 C 45.769531 70.132812 45.78125 70.273438 45.816406 70.40625 C 46.09375 71.363281 47.277344 71.65625 48.195312 71.515625 C 49.402344 71.355469 50.742188 70.601562 50.949219 69.351562 C 50.96875 69.238281 50.96875 69.128906 50.957031 69.023438 Z M 47.75 77.671875 C 47.53125 76.410156 46.117188 75.679688 44.875 75.6875 C 43.96875 75.617188 42.828125 76.199219 42.863281 77.179688 C 43.027344 78.535156 44.640625 79.300781 45.941406 79.199219 C 46.8125 79.191406 47.800781 78.59375 47.75 77.671875 Z M 46.246094 66.585938 C 46.195312 66.042969 45.800781 65.550781 45.207031 65.433594 C 43.628906 65.128906 41.792969 66.28125 41.640625 67.871094 C 41.597656 68.535156 42.179688 69.050781 42.820312 69.144531 C 44.191406 69.339844 45.667969 68.472656 46.144531 67.222656 C 46.238281 67.015625 46.269531 66.796875 46.246094 66.585938 Z M 44.125 72.574219 C 44.007812 71.515625 43.332031 70.5 42.421875 69.902344 C 41.371094 69.265625 40.175781 68.78125 38.925781 68.675781 C 38.011719 68.480469 37.070312 69.242188 37.160156 70.148438 C 37.25 71.242188 38.128906 72.097656 38.304688 73.171875 C 38.550781 74.078125 38.140625 74.953125 37.90625 75.816406 C 37.671875 76.550781 37.894531 77.511719 38.722656 77.785156 C 39.558594 77.980469 40.367188 77.472656 41.042969 77.054688 C 42.125 76.226562 43.261719 75.34375 43.859375 74.113281 C 44.105469 73.617188 44.183594 73.089844 44.125 72.574219 Z M 44.125 72.574219 " fill-opacity="1" fill-rule="nonzero"/><path fill="#03989e" d="M 19.207031 88.96875 C 19.210938 88.941406 19.210938 88.910156 19.214844 88.878906 C 19.175781 87.675781 17.980469 86.839844 16.851562 86.582031 C 15.835938 86.292969 14.441406 86.539062 14.050781 87.597656 C 13.996094 87.75 13.984375 87.917969 14.007812 88.078125 C 14.273438 89.460938 15.804688 90.28125 17.175781 90.289062 C 18.050781 90.359375 19.085938 89.867188 19.207031 88.96875 Z M 19.882812 83.980469 C 19.972656 83.246094 19.285156 82.566406 18.578125 82.34375 C 17.175781 81.890625 15.300781 82.257812 14.632812 83.628906 C 14.582031 83.761719 14.558594 83.898438 14.5625 84.039062 C 14.585938 85.035156 15.660156 85.613281 16.582031 85.703125 C 17.792969 85.851562 19.277344 85.449219 19.796875 84.296875 C 19.84375 84.191406 19.871094 84.085938 19.882812 83.980469 Z M 14.601562 91.550781 C 14.710938 90.277344 13.523438 89.21875 12.316406 88.917969 C 11.457031 88.621094 10.207031 88.902344 9.996094 89.859375 C 9.8125 91.214844 11.179688 92.355469 12.46875 92.582031 C 13.3125 92.792969 14.421875 92.457031 14.601562 91.550781 Z M 15.941406 80.445312 C 16.023438 79.910156 15.765625 79.332031 15.222656 79.070312 C 13.769531 78.382812 11.703125 79.042969 11.15625 80.546875 C 10.945312 81.175781 11.378906 81.816406 11.976562 82.070312 C 13.257812 82.601562 14.902344 82.128906 15.679688 81.035156 C 15.820312 80.859375 15.90625 80.65625 15.941406 80.445312 Z M 12.375 85.714844 C 12.53125 84.660156 12.128906 83.507812 11.402344 82.707031 C 10.542969 81.828125 9.507812 81.058594 8.324219 80.644531 C 7.488281 80.230469 6.382812 80.734375 6.246094 81.636719 C 6.054688 82.714844 6.691406 83.761719 6.589844 84.847656 C 6.601562 85.78125 5.984375 86.53125 5.539062 87.304688 C 5.125 87.960938 5.101562 88.945312 5.835938 89.417969 C 6.59375 89.816406 7.507812 89.523438 8.265625 89.285156 C 9.523438 88.753906 10.84375 88.179688 11.730469 87.136719 C 12.09375 86.722656 12.300781 86.230469 12.375 85.714844 Z M 12.375 85.714844 " fill-opacity="1" fill-rule="nonzero"/><path fill="#03989e" d="M 115.855469 73.148438 C 115.851562 73.121094 115.84375 73.089844 115.835938 73.0625 C 115.425781 71.925781 114.027344 71.5 112.875 71.601562 C 111.820312 71.640625 110.570312 72.300781 110.527344 73.429688 C 110.523438 73.589844 110.566406 73.753906 110.636719 73.898438 C 111.316406 75.132812 113.03125 75.445312 114.335938 75.027344 C 115.191406 74.824219 116.023438 74.039062 115.855469 73.148438 Z M 114.949219 68.195312 C 114.804688 67.46875 113.941406 67.035156 113.199219 67.039062 C 111.726562 67.039062 110.054688 67.96875 109.847656 69.476562 C 109.839844 69.617188 109.863281 69.753906 109.90625 69.886719 C 110.242188 70.828125 111.441406 71.046875 112.347656 70.851562 C 113.542969 70.617188 114.832031 69.78125 114.964844 68.523438 C 114.976562 68.40625 114.96875 68.296875 114.949219 68.195312 Z M 112.28125 77.019531 C 111.988281 75.773438 110.53125 75.132812 109.289062 75.21875 C 108.378906 75.199219 107.28125 75.851562 107.375 76.828125 C 107.625 78.171875 109.277344 78.835938 110.574219 78.65625 C 111.441406 78.597656 112.390625 77.9375 112.28125 77.019531 Z M 110.097656 66.046875 C 110.011719 65.511719 109.585938 65.039062 108.992188 64.960938 C 107.394531 64.75 105.636719 66.015625 105.582031 67.613281 C 105.578125 68.277344 106.1875 68.753906 106.835938 68.808594 C 108.21875 68.921875 109.636719 67.96875 110.035156 66.6875 C 110.117188 66.476562 110.132812 66.257812 110.097656 66.046875 Z M 108.351562 72.152344 C 108.167969 71.105469 107.429688 70.132812 106.488281 69.589844 C 105.398438 69.019531 104.175781 68.609375 102.921875 68.578125 C 101.996094 68.441406 101.101562 69.261719 101.25 70.160156 C 101.40625 71.246094 102.335938 72.042969 102.578125 73.109375 C 102.878906 73.996094 102.527344 74.894531 102.34375 75.769531 C 102.152344 76.519531 102.4375 77.460938 103.28125 77.6875 C 104.125 77.832031 104.902344 77.273438 105.550781 76.8125 C 106.578125 75.921875 107.660156 74.96875 108.179688 73.707031 C 108.394531 73.199219 108.4375 72.667969 108.351562 72.152344 Z M 108.351562 72.152344 " fill-opacity="1" fill-rule="nonzero"/><path fill="#03989e" d="M 81.800781 86.21875 C 81.804688 86.1875 81.808594 86.15625 81.808594 86.128906 C 81.734375 84.921875 80.511719 84.125 79.378906 83.898438 C 78.355469 83.640625 76.96875 83.925781 76.609375 84.996094 C 76.558594 85.152344 76.554688 85.316406 76.578125 85.480469 C 76.886719 86.851562 78.441406 87.628906 79.8125 87.59375 C 80.6875 87.640625 81.707031 87.121094 81.800781 86.21875 Z M 82.332031 81.210938 C 82.398438 80.472656 81.691406 79.8125 80.976562 79.613281 C 79.5625 79.199219 77.699219 79.625 77.074219 81.015625 C 77.027344 81.144531 77.007812 81.285156 77.015625 81.425781 C 77.070312 82.421875 78.160156 82.964844 79.082031 83.03125 C 80.296875 83.140625 81.769531 82.699219 82.253906 81.527344 C 82.296875 81.421875 82.320312 81.3125 82.332031 81.210938 Z M 77.277344 88.933594 C 77.347656 87.65625 76.128906 86.632812 74.914062 86.367188 C 74.046875 86.097656 72.808594 86.414062 72.621094 87.378906 C 72.480469 88.738281 73.882812 89.835938 75.175781 90.027344 C 76.023438 90.210938 77.121094 89.84375 77.277344 88.933594 Z M 78.285156 77.792969 C 78.351562 77.253906 78.078125 76.683594 77.527344 76.441406 C 76.054688 75.792969 74.007812 76.515625 73.507812 78.035156 C 73.316406 78.667969 73.765625 79.300781 74.371094 79.53125 C 75.667969 80.027344 77.296875 79.507812 78.042969 78.390625 C 78.179688 78.210938 78.257812 78.003906 78.285156 77.792969 Z M 74.878906 83.164062 C 75 82.105469 74.566406 80.96875 73.816406 80.1875 C 72.933594 79.332031 71.875 78.597656 70.679688 78.21875 C 69.832031 77.828125 68.742188 78.363281 68.628906 79.269531 C 68.46875 80.351562 69.140625 81.378906 69.070312 82.46875 C 69.109375 83.402344 68.515625 84.167969 68.09375 84.957031 C 67.699219 85.621094 67.703125 86.609375 68.449219 87.058594 C 69.21875 87.433594 70.125 87.117188 70.875 86.855469 C 72.117188 86.285156 73.417969 85.675781 74.277344 84.605469 C 74.628906 84.179688 74.820312 83.683594 74.878906 83.164062 Z M 74.878906 83.164062 " fill-opacity="1" fill-rule="nonzero"/><path fill="#03989e" d="M 182.523438 73.210938 C 182.519531 73.179688 182.515625 73.152344 182.511719 73.121094 C 182.175781 71.960938 180.808594 71.445312 179.652344 71.46875 C 178.597656 71.4375 177.308594 72.011719 177.1875 73.132812 C 177.171875 73.296875 177.203125 73.460938 177.261719 73.613281 C 177.859375 74.886719 179.550781 75.3125 180.878906 74.984375 C 181.746094 74.839844 182.628906 74.109375 182.523438 73.210938 Z M 181.953125 68.207031 C 181.855469 67.472656 181.023438 66.980469 180.28125 66.9375 C 178.8125 66.839844 177.082031 67.65625 176.777344 69.148438 C 176.757812 69.285156 176.769531 69.425781 176.808594 69.558594 C 177.078125 70.519531 178.257812 70.816406 179.175781 70.683594 C 180.386719 70.53125 181.726562 69.78125 181.945312 68.535156 C 181.964844 68.421875 181.964844 68.3125 181.953125 68.207031 Z M 178.695312 76.835938 C 178.488281 75.570312 177.078125 74.835938 175.832031 74.835938 C 174.925781 74.757812 173.785156 75.335938 173.8125 76.316406 C 173.972656 77.675781 175.578125 78.445312 176.882812 78.351562 C 177.75 78.351562 178.746094 77.757812 178.699219 76.835938 Z M 177.257812 65.742188 C 177.207031 65.199219 176.8125 64.703125 176.222656 64.585938 C 174.644531 64.269531 172.804688 65.414062 172.644531 67.003906 C 172.59375 67.664062 173.175781 68.183594 173.816406 68.28125 C 175.1875 68.484375 176.667969 67.625 177.152344 66.378906 C 177.242188 66.171875 177.277344 65.953125 177.257812 65.742188 Z M 175.101562 71.71875 C 174.988281 70.660156 174.320312 69.640625 173.414062 69.039062 C 172.367188 68.394531 171.175781 67.902344 169.925781 67.789062 C 169.011719 67.59375 168.0625 68.351562 168.152344 69.257812 C 168.234375 70.351562 169.109375 71.207031 169.277344 72.285156 C 169.519531 73.191406 169.105469 74.066406 168.867188 74.925781 C 168.625 75.660156 168.84375 76.621094 169.671875 76.902344 C 170.503906 77.101562 171.316406 76.597656 171.996094 76.179688 C 173.082031 75.359375 174.222656 74.480469 174.828125 73.253906 C 175.078125 72.761719 175.15625 72.234375 175.101562 71.71875 Z M 175.101562 71.71875 " fill-opacity="1" fill-rule="nonzero"/></svg>